<svg width="452" height="303" fill="none" xmlns="http://www.w3.org/2000/svg"><path opacity=".065" d="M59.6.4C78.133.4 94.067 6.267 107.4 18L89.2 37c-5.067-3.6-9.667-6.2-13.8-7.8-4-1.733-8.6-2.6-13.8-2.6-10 0-17.867 3.867-23.6 11.6-5.6 7.733-8.4 19.533-8.4 35.4 0 11.6.933 20.8 2.8 27.6 1.867 6.667 4.667 11.467 8.4 14.4 3.867 2.933 8.8 4.4 14.8 4.4s11.467-1.267 16.4-3.8V87.6H56.2l-3.6-25.4h55.2v69.2c-7.2 4.8-15.333 8.533-24.4 11.2-9.067 2.667-18 4-26.8 4-43.467 0-65.2-24.4-65.2-73.2 0-15.2 2.933-28.267 8.8-39.2C6.2 23.133 14.333 14.733 24.6 9 34.867 3.267 46.533.4 59.6.4zm125.283 0c20.133 0 35.8 6.4 47 19.2 11.2 12.8 16.8 30.733 16.8 53.8 0 15.067-2.534 28.133-7.6 39.2-4.934 10.933-12.2 19.333-21.8 25.2-9.6 5.867-21.067 8.8-34.4 8.8-20.134 0-35.8-6.4-47-19.2-11.067-12.8-16.6-30.8-16.6-54 0-15.067 2.466-28.067 7.4-39 5.066-10.933 12.333-19.333 21.8-25.2 9.6-5.867 21.066-8.8 34.4-8.8zm0 26.6c-8.667 0-15.067 3.6-19.2 10.8-4 7.2-6 19.067-6 35.6s2.066 28.467 6.2 35.8c4.133 7.2 10.466 10.8 19 10.8 8.8 0 15.2-3.6 19.2-10.8 4-7.2 6-19.133 6-35.8 0-16.533-2-28.4-6-35.6-4-7.2-10.4-10.8-19.2-10.8zM44.8 156.4c10.533 0 19.8 1.533 27.8 4.6 8.133 3.067 15.4 7.667 21.8 13.8l-16.6 19.6c-9.6-7.6-19.667-11.4-30.2-11.4-5.467 0-9.667 1.067-12.6 3.2-2.8 2-4.2 4.867-4.2 8.6 0 2.667.733 4.867 2.2 6.6 1.467 1.733 3.933 3.4 7.4 5 3.467 1.6 8.933 3.6 16.4 6 14.267 4.533 24.667 10.267 31.2 17.2 6.667 6.8 10 16.267 10 28.4 0 8.8-2.267 16.6-6.8 23.4-4.533 6.667-11.133 11.867-19.8 15.6-8.533 3.733-18.6 5.6-30.2 5.6-22.133 0-40.2-6.733-54.2-20.2l18.2-20.2c11.067 9.067 22.6 13.6 34.6 13.6 6.267 0 11.133-1.333 14.6-4 3.467-2.8 5.2-6.467 5.2-11 0-3.2-.667-5.8-2-7.8-1.333-2.133-3.733-4-7.2-5.6-3.333-1.733-8.267-3.6-14.8-5.6-15.733-4.933-26.8-10.867-33.2-17.8-6.4-6.933-9.6-15.667-9.6-26.2 0-8.267 2.2-15.533 6.6-21.8 4.533-6.267 10.733-11.067 18.6-14.4 8-3.467 16.933-5.2 26.8-5.2zm178.016 96c0 9.6-2.134 18.2-6.4 25.8-4.134 7.6-10.4 13.6-18.8 18-8.4 4.267-18.667 6.4-30.8 6.4-18.4 0-32.334-4.467-41.8-13.4-9.467-9.067-14.2-21.333-14.2-36.8V160h37v91.2c0 8.4 1.466 14.6 4.4 18.6 3.066 3.867 7.933 5.8 14.6 5.8 6.666 0 11.466-2 14.4-6 2.933-4 4.4-10.133 4.4-18.4V160h37.2v92.4zm66.692-4.6h-10.2V299h-37V160h48.2c19.6 0 34.2 3.533 43.8 10.6 9.733 7.067 14.6 17.933 14.6 32.6 0 8.8-2.067 16.133-6.2 22-4 5.867-10.467 11.133-19.4 15.8l34.6 58h-41.2l-27.2-51.2zm-10.2-25.2h12.4c12.8 0 19.2-6.467 19.2-19.4 0-6-1.8-10.4-5.4-13.2-3.467-2.8-8.734-4.2-15.8-4.2h-10.4v36.8zm87.023 76.4V160h85.4l-3.8 26.2h-44.6v33.4h39.2v26.2h-39.2V299h-37z" fill="#fff"/></svg>