<svg width="39" height="40" fill="none" xmlns="http://www.w3.org/2000/svg"><path d="M38.037 32.188H29.75a.484.484 0 000 .97h8.287a.484.484 0 000-.97zm0 6.152h-9.291a.484.484 0 000 .97h9.291a.484.484 0 000-.97zM.481 35.692h7.493a.484.484 0 000-.971H.481a.484.484 0 00-.481.485c0 .27.216.486.481.486z" fill="#fff"/><path fill-rule="evenodd" clip-rule="evenodd" d="M3.745.535A.478.478 0 014.3.628a.49.49 0 01.088.56 4.263 4.263 0 00-.45 1.912c0 2.377 1.93 4.313 4.3 4.313.664 0 1.305-.154 1.907-.453a.478.478 0 01.555.093.488.488 0 01.09.559 5.231 5.231 0 01-4.711 2.94C3.177 10.552.816 8.18.816 5.267A5.258 5.258 0 013.745.534zm5.383 7.772a5.156 5.156 0 01-.89.076c-2.902 0-5.262-2.37-5.26-5.284 0-.303.024-.6.075-.894a4.286 4.286 0 00-1.274 3.061c0 2.38 1.93 4.315 4.3 4.315a4.256 4.256 0 003.049-1.274zM38.039 24.41h-.002a.484.484 0 00-.481.483l-.012 2.592L19.677.924c-.179-.268-.617-.268-.797 0L1.025 27.466l.012-2.75a.483.483 0 00-.48-.488H.555a.484.484 0 00-.481.483l-.017 4.342a.486.486 0 00.481.487.485.485 0 00.399-.212l2.81-4.177v3.905c0 .268.216.486.481.486h10.724a4.368 4.368 0 004.168 3.094l.019-.001.019-.001h.01l.009.002c.006 0 .011 0 .017-.002l.01-.001a4.366 4.366 0 004.081-3.091H34.33a.484.484 0 00.482-.486v-3.905l2.81 4.177a.477.477 0 00.538.191.485.485 0 00.34-.462l.019-4.16a.482.482 0 00-.48-.487zm-18.806 7.25h-.006a.946.946 0 01-.07.003 1.535 1.535 0 01-1.512-1.531c0-.552.805-1.822 1.531-2.78.726.958 1.531 2.228 1.531 2.78 0 .824-.656 1.497-1.474 1.528zm2.435-1.53c0 .144-.018.28-.041.417.551-.607.89-1.409.886-2.29 0-1.454-2.19-4.548-3.397-6.088-1.205 1.54-3.397 4.636-3.397 6.088 0 .955.397 1.82 1.031 2.44a2.567 2.567 0 01-.07-.567c0-1.229 1.77-3.437 2.124-3.868a.496.496 0 01.741 0c.355.43 2.123 2.64 2.123 3.868zm-2.177-9.041a.496.496 0 00-.742 0c-.408.495-3.989 4.908-3.989 7.168 0 .076.005.151.01.226l.005.089H9.927v-3.2c.628-.512 2.71-2.287 4.818-4.92 1.712-2.136 3.666-5.156 4.552-8.6.886 3.445 2.84 6.463 4.551 8.6 2.109 2.633 4.19 4.408 4.82 4.92v3.2h-5.205c.007-.104.015-.209.015-.315.002-2.26-3.58-6.673-3.987-7.168zm10.137 7.483h4.22l.003-4.852L19.28 2.061 4.71 23.721v4.85h4.252v-3.434c0-.152.07-.294.188-.385.117-.092 9.663-7.635 9.663-16.562 0-.267.217-.485.482-.485s.481.218.481.485c0 8.924 9.54 16.464 9.663 16.561a.49.49 0 01.189.386v3.435z" fill="#fff"/><path fill-rule="evenodd" clip-rule="evenodd" d="M26.596 34.433a.488.488 0 01-.304.622l-1.781.593 1.711.487a.486.486 0 01.331.605l-.615 2.09a.48.48 0 01-.592.327l-6.128-1.746-5.624 1.875a.474.474 0 01-.602-.301l-.709-2.061a.485.485 0 01.303-.62l1.486-.495-1.785-.508a.486.486 0 01-.331-.605l.615-2.089a.48.48 0 01.592-.33l6.201 1.767 5.917-1.973a.48.48 0 01.606.301l.709 2.061zm-13.237-1.092l-.342 1.158 2.686.766 2.03-.677-4.374-1.247zm12.131 3.594l-.342 1.159-4.3-1.227 2.032-.677 2.61.745zm-12.14.137l.393 1.143 11.783-3.928-.393-1.143-11.783 3.928z" fill="#fff"/></svg>