<svg width="17" height="44" fill="none" xmlns="http://www.w3.org/2000/svg"><path fill-rule="evenodd" clip-rule="evenodd" d="M1 20.583C1 7.503 6.422.445 8.639.445c2.217 0 7.639 7.057 7.639 20.138 0 13.217-4.743 22.177-4.945 22.552l-.196.365H6.141l-.197-.365C5.744 42.76 1 33.8 1 20.583zM7.945 2.288zm0 0v21.768h1.389V2.288c1.777 1.587 5.555 7.36 5.555 18.295a53.6 53.6 0 01-.93 9.888c-.804-1.145-2.282-2.702-4.974-4.24-6.547-3.742-6.467-8.879-6.462-9.096h-.002C3.204 8.42 6.365 3.7 7.945 2.288zm-5.42 21.936a51.333 51.333 0 01-.113-2.526c.993 1.846 2.755 3.951 5.883 5.74 4.446 2.54 5.207 5.054 5.226 5.117a52.58 52.58 0 01-1.087 4.023c-.585-1.036-1.616-2.31-3.437-3.395-5.485-3.266-6.35-8.004-6.472-8.959zm6.808 17.887h.96c.276-.57.836-1.788 1.47-3.542-.134-.578-.784-2.59-3.478-4.194-2.45-1.46-4.06-3.198-5.125-4.826 1.137 6.662 3.2 11.274 3.824 12.562h.96V37.25h1.39v4.861z" fill="#fff"/><path d="M8.639.445V.32v.125zm2.694 42.69l.11.06-.11-.06zm-.196.365v.125h.075l.035-.066-.11-.06zm-4.996 0l-.11.059.035.066h.075V43.5zm-.197-.365l-.11.06.11-.06zm2-40.847l-.04-.118-.084.029v.09h.125zm0 0l.084.093-.123-.211.04.118zm0 21.768H7.82v.125h.125v-.125zm1.39 0v.125h.125v-.125h-.125zm0-21.768l.083-.093-.208-.186v.28h.125zm4.625 28.183l-.103.071.17.243.055-.291-.122-.023zm-4.974-4.24l-.062.108.062-.108zm-6.462-9.096l.125.003.003-.128h-.128v.125zm-.002 0l-.124-.01-.01.135h.134v-.125zm-.109 4.563l.11-.059-.235.062.125-.003zm.113 2.526l-.125.01v.006l.125-.016zm5.77 3.214l-.062.108.062-.108zm5.226 5.117l-.12.036.12-.036zm0 0l.122.029.007-.033-.01-.032-.119.037zm-1.087 4.023l-.108.062.141.25.087-.274-.12-.038zm-3.437-3.395l.064-.108-.064.108zm1.297 8.928v.125h.215l-.107-.187-.108.062zm-.96 0h-.126v.125h.125v-.125zm.96 0l-.113-.054-.029.059.033.057.108-.062zm1.47-3.542l.117.043.013-.035-.008-.036-.122.028zm-3.48-4.194l-.063.107.064-.107zM3.16 29.549l.104-.069-.227.09.123-.021zM6.984 42.11l-.112.055.034.07h.079v-.125zm.96 0v.125h.126v-.125h-.125zm0-4.861v-.125H7.82v.125h.125zm1.39 0h.124v-.125h-.125v.125zM8.638.32c-.309 0-.659.122-1.03.347-.372.225-.774.56-1.19.999-.83.878-1.723 2.18-2.544 3.889-1.641 3.418-3 8.47-3 15.028h.25c0-6.523 1.352-11.539 2.976-14.92.812-1.691 1.69-2.97 2.5-3.825.404-.427.79-.746 1.138-.958.35-.212.654-.31.9-.31V.32zm7.764 20.263c0-6.557-1.36-11.61-3-15.029-.82-1.708-1.713-3.01-2.544-3.888-.416-.439-.818-.774-1.19-1C9.298.443 8.948.32 8.639.32v.25c.246 0 .55.098.9.31.348.212.734.53 1.138.958.81.854 1.688 2.134 2.5 3.825 1.624 3.38 2.976 8.396 2.976 14.92h.25zm-4.96 22.611c.207-.384 4.96-9.365 4.96-22.61h-.25c0 13.187-4.734 22.127-4.93 22.492l.22.118zm-.196.365l.196-.365-.22-.118-.196.364.22.119zm-5.106.066h4.996v-.25H6.141v.25zm-.307-.43l.197.364.22-.118-.196-.365-.22.118zM.875 20.582c0 13.246 4.753 22.227 4.96 22.611l.22-.118c-.197-.365-4.93-9.305-4.93-22.493h-.25zM7.82 2.288h.25-.25zm.085-.118l.08.237-.08-.237zm.123.212l-.166-.187.166.187zm.042 21.674V2.288h-.25v21.768h.25zm1.264-.125h-1.39v.25h1.39v-.25zM9.209 2.288v21.768h.25V2.288h-.25zm5.805 18.295c0-10.96-3.786-16.772-5.597-18.388l-.167.187c1.745 1.557 5.514 7.292 5.514 18.201h.25zm-.933 9.91c.549-2.914.933-6.252.933-9.91h-.25c0 3.64-.383 6.963-.928 9.864l.245.047zM8.923 26.34c2.677 1.53 4.14 3.075 4.933 4.203l.205-.143c-.815-1.16-2.307-2.73-5.014-4.277l-.124.217zm-6.525-9.207c-.006.244-.076 5.435 6.525 9.207l.124-.217c-6.493-3.71-6.404-8.794-6.399-8.984l-.25-.006zm.123.128h.002v-.25h-.002v.25zm5.34-15.065c-1.61 1.439-4.78 6.19-5.464 14.93l.249.02c.68-8.693 3.832-13.378 5.382-14.763l-.167-.187zM2.287 21.701c.02.861.054 1.707.113 2.532l.25-.018a51.215 51.215 0 01-.113-2.52l-.25.006zm6.07 5.628c-3.107-1.776-4.853-3.865-5.835-5.69l-.22.119c1.004 1.866 2.783 3.988 5.931 5.788l.124-.217zm5.284 5.19c-.028-.093-.81-2.632-5.284-5.19l-.124.217c4.417 2.525 5.158 5.011 5.168 5.045l.24-.072zm0 0l-.24.073.24-.073zm-1.087 4.097a52.83 52.83 0 001.089-4.032l-.244-.056a52.492 52.492 0 01-1.084 4.013l.239.075zM8.933 33.29c1.8 1.073 2.817 2.33 3.393 3.35l.217-.123c-.595-1.054-1.64-2.345-3.482-3.442l-.128.215zM2.4 24.24c.124.975 1.002 5.757 6.532 9.05l.128-.215c-5.439-3.238-6.293-7.932-6.412-8.866l-.248.031zm7.893 17.746h-.96v.25h.96v-.25zm-.109.187l.217-.124-.217.124zm1.461-3.646a37.725 37.725 0 01-1.465 3.53l.225.109a37.99 37.99 0 001.475-3.554l-.235-.085zM8.22 34.482c2.658 1.583 3.291 3.562 3.421 4.116l.244-.057c-.142-.603-.807-2.648-3.537-4.273l-.128.214zm-5.166-4.865c1.074 1.643 2.699 3.395 5.166 4.865l.128-.215c-2.432-1.449-4.03-3.173-5.085-4.787l-.209.137zm4.042 12.44c-.621-1.281-2.68-5.882-3.814-12.53l-.246.043c1.14 6.676 3.206 11.3 3.835 12.596l.225-.11zm.848-.07h-.96v.25h.96v-.25zM7.82 37.25v4.861h.25V37.25h-.25zm1.513-.125H7.945v.25h1.388v-.25zm.125 4.986V37.25h-.25v4.861h.25z" fill="#000"/></svg>