<svg width="61" height="354" fill="none" xmlns="http://www.w3.org/2000/svg"><path d="M13.411 144.708l-.168 1.26h-2.16V153H9.487v-7.032H7.255v-1.26h6.156zm6.756 1.776c.232 0 .444.028.636.084l-.264 1.488a2.32 2.32 0 00-.564-.072c-.376 0-.672.136-.888.408-.216.264-.388.672-.516 1.224V153h-1.536v-6.348h1.332l.144 1.248c.152-.456.372-.804.66-1.044.288-.248.62-.372.996-.372zm8.861 4.836c0 .248.036.432.108.552.08.112.204.2.372.264l-.324 1.02c-.36-.032-.656-.12-.888-.264-.224-.144-.396-.364-.516-.66a2.07 2.07 0 01-.816.72c-.32.152-.68.228-1.08.228-.632 0-1.132-.18-1.5-.54-.368-.36-.552-.832-.552-1.416 0-.688.248-1.212.744-1.572.504-.368 1.22-.552 2.148-.552h.792v-.36c0-.408-.096-.692-.288-.852-.184-.168-.484-.252-.9-.252-.464 0-1.024.112-1.68.336l-.36-1.044c.792-.304 1.56-.456 2.304-.456 1.624 0 2.436.728 2.436 2.184v2.664zm-2.736.744c.52 0 .928-.26 1.224-.78V150h-.636c-.992 0-1.488.368-1.488 1.104 0 .304.076.54.228.708.152.168.376.252.672.252zm12.52-5.412L36.746 153H34.91l-2.1-6.348h1.668l1.356 5.112 1.392-5.112h1.584zm9.084 3.024c0 .08-.012.288-.036.624h-3.984c.048.616.208 1.056.48 1.32s.632.396 1.08.396c.28 0 .544-.044.792-.132.248-.096.512-.24.792-.432l.636.876c-.704.568-1.488.852-2.352.852-.968 0-1.716-.296-2.244-.888-.52-.592-.78-1.4-.78-2.424 0-.648.112-1.228.336-1.74.224-.52.548-.924.972-1.212.424-.296.928-.444 1.512-.444.888 0 1.576.284 2.064.852.488.56.732 1.344.732 2.352zm-1.524-.444c0-1.112-.412-1.668-1.236-1.668-.376 0-.672.14-.888.42-.208.272-.332.712-.372 1.32h2.496v-.072zm7.402 3.948c-.488 0-.872-.14-1.152-.42-.272-.288-.408-.692-.408-1.212v-7.44l1.536-.168v7.56c0 .296.12.444.36.444.12 0 .24-.02.36-.06l.324 1.08c-.32.144-.66.216-1.02.216zm-40.172 88.348c.584 0 1.092.084 1.524.252.432.168.836.424 1.212.768l-.78.9a3.058 3.058 0 00-.9-.54 2.69 2.69 0 00-.96-.168c-.384 0-.696.088-.936.264-.232.168-.348.408-.348.72 0 .208.044.38.132.516.096.136.264.264.504.384s.596.252 1.068.396c.816.256 1.428.576 1.836.96.416.376.624.928.624 1.656 0 .496-.128.936-.384 1.32-.248.384-.608.684-1.08.9-.472.216-1.032.324-1.68.324-.632 0-1.2-.1-1.704-.3a4.06 4.06 0 01-1.284-.84l.816-.912c.32.272.652.48.996.624.344.136.724.204 1.14.204.456 0 .824-.108 1.104-.324.28-.216.42-.52.42-.912 0-.24-.048-.436-.144-.588-.096-.16-.26-.3-.492-.42-.232-.128-.568-.26-1.008-.396-.88-.272-1.516-.6-1.908-.984-.392-.384-.588-.888-.588-1.512 0-.456.12-.856.36-1.2s.572-.612.996-.804c.432-.192.92-.288 1.464-.288zm8.779 8.652c-.488 0-.872-.14-1.152-.42-.272-.288-.408-.692-.408-1.212v-7.44l1.536-.168v7.56c0 .296.12.444.36.444.12 0 .24-.02.36-.06l.324 1.08c-.32.144-.66.216-1.02.216zm10.188-3.504c0 .08-.012.288-.036.624H28.55c.049.616.209 1.056.48 1.32.273.264.633.396 1.08.396.28 0 .544-.044.792-.132.248-.096.512-.24.793-.432l.636.876c-.704.568-1.488.852-2.352.852-.969 0-1.716-.296-2.245-.888-.52-.592-.78-1.4-.78-2.424 0-.648.113-1.228.337-1.74.224-.52.547-.924.972-1.212.424-.296.927-.444 1.511-.444.889 0 1.576.284 2.064.852.488.56.732 1.344.732 2.352zm-1.524-.444c0-1.112-.412-1.668-1.236-1.668-.376 0-.672.14-.887.42-.209.272-.332.712-.373 1.32h2.497v-.072zm11.11.444c0 .08-.012.288-.036.624h-3.984c.048.616.208 1.056.48 1.32s.632.396 1.08.396c.28 0 .544-.044.792-.132.248-.096.512-.24.792-.432l.636.876c-.704.568-1.488.852-2.352.852-.968 0-1.716-.296-2.244-.888-.52-.592-.78-1.4-.78-2.424 0-.648.112-1.228.336-1.74.224-.52.548-.924.972-1.212.424-.296.928-.444 1.512-.444.888 0 1.576.284 2.064.852.488.56.732 1.344.732 2.352zm-1.524-.444c0-1.112-.412-1.668-1.236-1.668-.376 0-.672.14-.888.42-.208.272-.332.712-.372 1.32h2.496v-.072zm9.19-2.76c.8 0 1.392.292 1.776.876.384.584.576 1.404.576 2.46 0 .656-.1 1.24-.3 1.752-.192.504-.48.9-.864 1.188-.376.288-.824.432-1.344.432-.672 0-1.204-.232-1.596-.696v2.964l-1.536.168v-8.964h1.344l.084.78c.248-.32.532-.56.852-.72.32-.16.656-.24 1.008-.24zm-.588 5.532c.888 0 1.332-.728 1.332-2.184 0-.776-.1-1.336-.3-1.68a.976.976 0 00-.9-.516c-.256 0-.496.08-.72.24-.224.152-.416.36-.576.624v2.856c.296.44.684.66 1.164.66zM18.598 55.528c.584 0 1.092.084 1.524.252.432.168.836.424 1.212.768l-.78.9a3.058 3.058 0 00-.9-.54 2.69 2.69 0 00-.96-.168c-.384 0-.696.088-.936.264-.232.168-.348.408-.348.72 0 .208.044.38.132.516.096.136.264.264.504.384s.596.252 1.068.396c.816.256 1.428.576 1.836.96.416.376.624.928.624 1.656 0 .496-.128.936-.384 1.32-.248.384-.608.684-1.08.9-.472.216-1.032.324-1.68.324-.632 0-1.2-.1-1.704-.3a4.06 4.06 0 01-1.284-.84l.816-.912c.32.272.652.48.996.624.344.136.724.204 1.14.204.456 0 .824-.108 1.104-.324.28-.216.42-.52.42-.912 0-.24-.048-.436-.144-.588-.096-.16-.26-.3-.492-.42-.232-.128-.568-.26-1.008-.396-.88-.272-1.516-.6-1.908-.984-.392-.384-.588-.888-.588-1.512 0-.456.12-.856.36-1.2s.572-.612.996-.804c.432-.192.92-.288 1.464-.288zM30.953 64h-1.332l-.084-.888c-.232.36-.508.628-.828.804-.312.176-.684.264-1.116.264-.568 0-1.008-.172-1.32-.516-.304-.352-.456-.836-.456-1.452v-4.56h1.536v4.368c0 .36.06.616.18.768.128.152.328.228.6.228.488 0 .916-.3 1.284-.9v-4.464h1.536V64zm7.982-6.516c.232 0 .444.028.636.084l-.264 1.488a2.32 2.32 0 00-.564-.072c-.376 0-.672.136-.888.408-.216.264-.388.672-.516 1.224V64h-1.536v-6.348h1.332l.144 1.248c.152-.456.372-.804.66-1.044.288-.248.62-.372.996-.372zm7.159-1.38c-.304 0-.524.072-.66.216-.128.136-.192.356-.192.66v.672h1.524l-.168 1.104h-1.356V64h-1.536v-5.244h-1.032v-1.104h1.032v-.696c0-.6.192-1.084.576-1.452.392-.376.944-.564 1.656-.564.56 0 1.108.124 1.644.372l-.444 1.032a2.454 2.454 0 00-1.044-.24z" fill="#fff"/><path fill-rule="evenodd" clip-rule="evenodd" d="M54.75 125.276v2.747c.57.116 1 .616 1 1.212v.987c0 .599-.43 1.098-1 1.214v.025h-6.565c-.363 2.24-2.322 3.958-4.686 3.958-2.363 0-4.322-1.718-4.683-3.958H21.435c-.363 2.24-2.322 3.958-4.686 3.958-2.363 0-4.324-1.72-4.685-3.958H8.249l-.748.002a1.247 1.247 0 01-1.252-1.239v-.988c0-.684.563-1.238 1.252-1.238h.748v-11.131c0-3.412 2.805-6.187 6.252-6.187l5.77-.004v-1.973c-6.086-.574-11.242-1.647-12.803-3.191a.733.733 0 01-.134-.868.752.752 0 01.796-.387c4.977.882 12.716.999 19.626.999a997.894 997.894 0 005.345-.013c.914-.003 1.8-.006 2.649-.006l6.437.002h.002c4.358 0 7.041-.029 10.522-.197a.758.758 0 01.757.537.741.741 0 01-.353.853c-.502.278-1.127.537-1.867.777v1.501c0 .669-.36 1.247-.963 1.549a1.78 1.78 0 01-.793.191c-.363 0-.725-.116-1.037-.346l-2.42-1.776c-3.082.444-6.898.726-11.285.827v1.527l5.248-.002c3.344 0 6.428 1.107 8.904 2.969l.205.158a14.66 14.66 0 014.66 6.241l.006.012.014.032.043.113.037.096.299.767h-.043c.406 1.334.627 2.747.627 4.208zM41 119.586h10.932a13.227 13.227 0 00-3.553-4.453H41a.253.253 0 00-.25.247v3.958c0 .134.115.248.25.248zm8.75-10.876a.23.23 0 01-.139.223.233.233 0 01-.261-.024l-1.258-.921a33.79 33.79 0 001.658-.358v1.08zm-18.66-1.974c-1.086.003-2.2.007-3.332.007-4.44 0-9.22-.051-13.422-.319 4.035.754 9.838 1.287 16.664 1.287 6.273 0 11.76-.363 15.742-1.003-1.357.015-2.824.021-4.55.021h-.002l-6.44-.006c-1.168 0-2.404.004-3.69.01l-.97.003zm-9.319 2.1c3.01.238 6.186.359 9.229.359.764 0 1.514-.005 2.25-.015v1.5H21.771v-1.844zM13.5 130.719c0 1.774 1.457 3.216 3.25 3.216s3.25-1.442 3.25-3.216c0-1.774-1.457-3.216-3.25-3.216s-3.25 1.442-3.25 3.216zm30 3.216c-1.793 0-3.25-1.442-3.25-3.216 0-1.774 1.457-3.216 3.25-3.216s3.25 1.442 3.25 3.216c0 1.774-1.457 3.216-3.25 3.216zm0-7.916c2.363 0 4.324 1.718 4.685 3.958h6.065v-.495h-4.5v-1.484h3.5v-2.72c0-1.472-.25-2.885-.703-4.207H41c-.965 0-1.75-.777-1.75-1.732v-3.958c0-.955.785-1.732 1.75-1.732h5.111a13.296 13.296 0 00-6.113-1.485H14.502c-2.621 0-4.752 2.111-4.752 4.703v2.719h7.535v1.485H9.75v6.927h1v1.484h-3v.495h4.314c.364-2.24 2.323-3.958 4.686-3.958s4.324 1.718 4.685 3.958h17.38c.363-2.24 2.322-3.958 4.685-3.958z" fill="#fff"/><path d="M54.75 128.023l.084.288.216-.063v-.225h-.3zm0 0l-.084-.288.024.582.06-.294zm0 3.413l-.06-.294-.24.049v.245h.3zm0 .025v.3h.3v-.3h-.3zm-6.565 0v-.3h-.255l-.041.252.296.048zm-9.37 0l.297-.048-.04-.252h-.256v.3zm-17.38 0v-.3h-.255l-.041.252.296.048zm-9.371 0l.296-.048-.04-.252h-.256v.3zm-3.815 0v-.3.3zm-.748.002v.3h.001v-.3zm.748-3.465v.3h.3v-.3h-.3zm6.252-17.318v.3-.3zm5.77-.004v.3h.3v-.3h-.3zm0-1.973h.3v-.273l-.272-.026-.028.299zm-12.803-3.191l.211-.214v-.001l-.21.215zm-.134-.868l-.265-.141v.001l.265.14zm.796-.387l-.052.296.052-.296zm23.924.99v-.3.3zm1.047-.004v.3-.3zm0 0l-.001-.3.001.3zm0 0v-.3.3zm0 0l.002.3-.001-.3zm0 0v-.3.3zm2.649-.006v-.3.3zm6.437.002v.3-.3zm10.524-.197l-.012-.3h-.003l.015.3zm.757.537l.289-.083-.289.083zm-.353.853l.145.262-.145-.262zm-1.867.777l-.093-.286-.207.067v.219h.3zm-.963 3.05l.134.268-.134-.268zm-1.83-.155l.178-.242-.178.242zm-2.42-1.776l.177-.242-.099-.073-.121.018.043.297zm-11.285.827l-.007-.3-.293.007v.293h.3zm0 1.527h-.3v.3h.3v-.3zm5.248-.002v-.3.3zm8.904 2.969l.184-.238-.003-.002-.18.24zm.205.158l.185-.237h-.001l-.184.237zm4.66 6.241l-.279.109.005.013.007.013.268-.135zm.006.012l.277-.116-.004-.01-.005-.01-.268.136zm.014.032l.283-.1-.003-.007-.003-.008-.277.115zm.043.113l-.279.11v.001l.279-.111zm0 0l.28-.108-.001-.004-.279.112zm0 0l-.28.108.002.003.278-.111zm0 0l.28-.108-.001-.003-.279.111zm0 0l-.28.108.002.004.278-.112zm0 0l.28-.11-.001-.001-.279.111zm.037.096l-.282.103.003.006.28-.109zm.299.767v.3h.439l-.16-.408-.279.108zm-.043 0v-.3h-.405l.118.388.287-.088zm-2.191-1.482v.3h.48l-.21-.432-.27.132zm-3.553-4.453l.19-.233-.084-.067h-.106v.3zm1.232-6.2l-.133-.269.133.269zm.139-.223h-.3.3zm-.4.199l.178-.241-.001-.001-.177.242zm-1.258-.921l-.056-.295-.678.129.556.407.178-.241zm1.658-.358h.3v-.382l-.371.09.071.292zm-18.66-.894l.002.3-.001-.3zm0 0v-.3.3zm-3.332.007l-.027-.299.027.599v-.3zm0 0l.028.299-.028-.599v.3zm-13.422-.319l.02-.3-.075.595.055-.295zm32.406.284l.048.296-.051-.596.003.3zm-4.552.021v.3-.3zm-6.44-.006v-.3.3zm-3.69.01l.002.3-.001-.3zm-10.289 2.103l.024-.299-.324-.026v.325h.3zm11.479.344h.3v-.304l-.304.004.004.3zm0 1.5v.3h.3v-.3h-.3zm-11.479 0h-.3v.3h.3v-.3zm26.414 19.297l-.296.048.041.252h.255v-.3zm6.065 0v.3h.3v-.3h-.3zm0-.495h.3v-.3h-.3v.3zm-4.5 0h-.3v.3h.3v-.3zm0-1.484v-.3h-.3v.3h.3zm3.5 0v.3h.3v-.3h-.3zm-.703-6.927l.284-.098-.07-.202h-.214v.3zm-6.436-7.422v.3l.138-.567-.138.267zM9.75 119.586h-.3v.3h.3v-.3zm7.535 0h.3v-.3h-.3v.3zm0 1.485v.3h.3v-.3h-.3zm-7.535 0v-.3h-.3v.3h.3zm0 6.927h-.3v.3h.3v-.3zm1 0h.3v-.3h-.3v.3zm0 1.484v.3h.3v-.3h-.3zm-3 0v-.3h-.3v.3h.3zm0 .495h-.3v.3h.3v-.3zm4.314 0v.3h.256l.04-.252-.296-.048zm9.371 0l-.296.048.04.252h.256v-.3zm17.38 0v.3h.255l.04-.252-.296-.048zm16.235-1.954v-2.747h-.6v2.747h.6zm-.217.288l-.167-.577v.001l.167.576zm1.217.924c0-.744-.536-1.363-1.24-1.506l-.12.588c.436.088.76.47.76.918h.6zm0 .987v-.987h-.6v.987h.6zm-1.24 1.508a1.543 1.543 0 001.24-1.508h-.6a.944.944 0 01-.76.92l.12.588zm.24-.269v-.025h-.6v.025h.6zm-6.865.3h6.565v-.6h-6.565v.6zm-4.686 3.958c2.512 0 4.595-1.826 4.982-4.21l-.592-.096c-.34 2.096-2.174 3.706-4.39 3.706v.6zm-4.98-4.21c.385 2.384 2.47 4.21 4.98 4.21v-.6c-2.215 0-4.049-1.61-4.387-3.706l-.592.096zm-17.084.252h17.38v-.6h-17.38v.6zm-4.686 3.958c2.512 0 4.595-1.826 4.982-4.21l-.592-.096c-.34 2.096-2.174 3.706-4.39 3.706v.6zm-4.981-4.21c.384 2.383 2.47 4.21 4.981 4.21v-.6c-2.215 0-4.051-1.612-4.389-3.706l-.592.096zm-3.519.252h3.815v-.6H8.249v.6zm-.747.002l.748-.002-.001-.6-.748.002.001.6zm-1.553-1.539c0 .851.698 1.539 1.552 1.539v-.6a.947.947 0 01-.952-.939h-.6zm0-.988v.988h.6v-.988h-.6zm1.552-1.538c-.852 0-1.552.685-1.552 1.538h.6c0-.515.425-.938.952-.938v-.6zm.748 0h-.748v.6h.748v-.6zm-.3-10.831v11.131h.6v-11.131h-.6zm6.552-6.487c-3.61 0-6.552 2.907-6.552 6.487h.6c0-3.243 2.668-5.887 5.952-5.887v-.6zm5.77-.004l-5.77.004v.6l5.77-.004v-.6zm-.3-1.673v1.973h.6v-1.973h-.6zm-12.714-2.978c.431.426 1.088.801 1.9 1.134.818.334 1.815.635 2.947.904 2.263.537 5.088.951 8.139 1.238l.056-.597c-3.035-.286-5.83-.696-8.057-1.225-1.113-.264-2.078-.557-2.857-.876-.784-.32-1.356-.659-1.706-1.005l-.422.427zm-.189-1.221c-.214.405-.137.901.19 1.222l.42-.429a.433.433 0 01-.08-.513l-.53-.28zm1.115-.542a1.053 1.053 0 00-1.114.541l.53.282a.452.452 0 01.479-.232l.105-.591zm19.572.994c-6.916 0-14.626-.118-19.572-.994l-.105.591c5.008.886 12.774 1.003 19.678 1.003v-.6zm4.298-.009c-1.386.006-2.83.009-4.297.009v.6c1.469 0 2.913-.003 4.3-.009l-.003-.6zm1.047-.004l-1.047.004.002.6 1.047-.004-.002-.6zm0 0l.002.6-.002-.6zm0 0l.002.6-.002-.6zm0 0l.002.6-.002-.6zm0 0l.002.6-.002-.6zm0 0l.002.6-.001-.6zm0 0l.003.6-.002-.6zm2.65-.006c-.85 0-1.736.003-2.65.006l.003.6c.913-.003 1.798-.006 2.647-.006v-.6zm6.437.002l-6.437-.002v.6l6.437.002v-.6zm.002 0h-.002v.6h.002v-.6zm10.507-.197c-3.473.168-6.151.197-10.507.197v.6c4.36 0 7.048-.029 10.536-.197l-.029-.6zm1.06.754a1.057 1.057 0 00-1.057-.754l.023.6a.456.456 0 01.458.321l.577-.167zm-.495 1.198a1.04 1.04 0 00.496-1.198l-.577.167a.44.44 0 01-.21.506l.29.525zm-1.92.8c.751-.244 1.395-.51 1.92-.8l-.292-.525c-.48.266-1.085.518-1.814.754l.185.571zm.207 1.216v-1.501h-.6v1.501h.6zm-1.13 1.817a2.001 2.001 0 001.13-1.817h-.6a1.4 1.4 0 01-.797 1.28l.268.537zm-.926.223c.316 0 .63-.076.927-.223l-.268-.537a1.47 1.47 0 01-.66.16v.6zm-1.215-.404c.363.267.787.404 1.215.404v-.6c-.299 0-.598-.095-.86-.288l-.355.484zm-2.42-1.776l2.42 1.776.355-.484-2.42-1.776-.355.484zm-11.1.885c4.394-.101 8.223-.384 11.32-.83l-.085-.594c-3.066.442-6.87.724-11.249.824l.014.6zm.293 1.227v-1.527h-.6v1.527h.6zm4.948-.302l-5.248.002v.6l5.248-.002v-.6zm9.085 3.029a15.073 15.073 0 00-9.085-3.029v.6c3.277 0 6.298 1.085 8.724 2.908l.36-.479zm.208.161l-.205-.159-.367.475.205.158.367-.474zm4.756 6.369a14.967 14.967 0 00-4.755-6.369l-.369.474a14.355 14.355 0 014.565 6.113l.56-.218zm-.006-.015l-.006-.011-.535.27.006.012.535-.271zm.023.053l-.014-.033-.554.231.014.033.554-.231zm.045.117a2.867 2.867 0 01-.04-.102l-.565.201.047.122.558-.221zm0-.001l-.558.223.558-.223zm0 .004l-.559.216.56-.216zm0-.003l-.557.222v.001l.557-.223zm.001.003l-.56.216.56-.216zm-.001-.003l-.557.223.557-.223zm.04.104a4.67 4.67 0 00-.04-.103l-.558.221.034.088.564-.206zm.297.762l-.3-.768-.558.218.298.767.56-.217zm-.323.408h.043v-.6h-.043v.6zm.927 3.908c0-1.491-.225-2.934-.64-4.295l-.574.175c.398 1.306.614 2.689.614 4.12h.6zm-3.118-5.99H41v.6h10.932v-.6zm0 0v.6-.6zm-3.742-3.92a12.927 12.927 0 013.473 4.352l.538-.264a13.527 13.527 0 00-3.633-4.554l-.378.466zm-7.19.067h7.38v-.6H41v.6zm.05-.053a.057.057 0 01-.014.04.053.053 0 01-.036.013v-.6a.553.553 0 00-.55.547h.6zm0 3.958v-3.958h-.6v3.958h.6zm-.05-.052a.05.05 0 01.036.013.054.054 0 01.014.039h-.6c0 .302.253.548.55.548v-.6zm8.744-10.084a.555.555 0 00.227-.201.546.546 0 00.079-.291h-.6c0 .004 0 .002.001-.003a.09.09 0 01.01-.023.072.072 0 01.016-.018c.004-.004.005-.004.001-.002l.266.538zm-.572-.051c.076.056.17.1.278.109a.55.55 0 00.294-.058l-.266-.538c-.004.002-.004.001.001 0a.09.09 0 01.047.004c.006.002.006.003.002 0l-.356.483zm-1.258-.922l1.258.922.355-.484-1.258-.921-.355.483zm1.765-.891c-.51.125-1.058.244-1.643.355l.112.589a33.365 33.365 0 001.673-.361l-.142-.583zm.371 1.372v-1.08h-.6v1.08h.6zm-18.958-1.674l-.002-.6.002.6zm-3.334.007c1.132 0 2.247-.004 3.334-.007l-.002-.6c-1.087.003-2.201.007-3.332.007v.6zm-.027-.599l.054.598-.054-.598zm-13.414.279c4.212.27 9.001.32 13.441.32v-.6c-4.438 0-9.211-.051-13.402-.319l-.039.599zm16.683.688c-6.812 0-12.596-.532-16.608-1.282l-.11.59c4.057.758 9.879 1.292 16.718 1.292v-.6zm15.695-.999c-3.961.636-9.43.999-15.695.999v.6c6.283 0 11.786-.364 15.79-1.007l-.095-.592zm-4.503.617c1.727 0 3.195-.006 4.554-.021l-.007-.6c-1.356.015-2.821.021-4.547.021v.6zm-.002 0h.002v-.6h-.002v.6zm-6.44-.006l6.44.006v-.6l-6.44-.006v.6zm-3.688.01c1.285-.006 2.52-.01 3.688-.01v-.6c-1.168 0-2.405.004-3.69.01l.002.6zm-.97.003l.97-.003-.002-.6-.97.003.002.6zM31 108.895c-3.035 0-6.203-.121-9.205-.358l-.047.598c3.018.238 6.201.36 9.252.36v-.6zm2.246-.015c-.735.01-1.484.015-2.246.015v.6c.765 0 1.517-.005 2.254-.015l-.008-.6zm.304 1.8v-1.5h-.6v1.5h.6zm-11.778.3H33.25v-.6H21.771v.6zm-.3-2.144v1.844h.6v-1.844h-.6zm-4.722 24.799c-1.63 0-2.95-1.31-2.95-2.916h-.6c0 1.943 1.594 3.516 3.55 3.516v-.6zm2.95-2.916c0 1.606-1.32 2.916-2.95 2.916v.6c1.956 0 3.55-1.573 3.55-3.516h-.6zm-2.95-2.916c1.63 0 2.95 1.311 2.95 2.916h.6c0-1.943-1.594-3.516-3.55-3.516v.6zm-2.95 2.916c0-1.605 1.32-2.916 2.95-2.916v-.6c-1.956 0-3.55 1.573-3.55 3.516h.6zm26.15 0c0 1.943 1.594 3.516 3.55 3.516v-.6c-1.63 0-2.95-1.31-2.95-2.916h-.6zm3.55-3.516c-1.956 0-3.55 1.573-3.55 3.516h.6c0-1.605 1.32-2.916 2.95-2.916v-.6zm3.55 3.516c0-1.943-1.594-3.516-3.55-3.516v.6c1.63 0 2.95 1.311 2.95 2.916h.6zm-3.55 3.516c1.956 0 3.55-1.573 3.55-3.516h-.6c0 1.606-1.32 2.916-2.95 2.916v.6zm4.982-4.306c-.385-2.385-2.47-4.21-4.982-4.21v.6c2.215 0 4.051 1.61 4.39 3.706l.592-.096zm5.768-.252h-6.065v.6h6.065v-.6zm-.3-.195v.495h.6v-.495h-.6zm-4.2.3h4.5v-.6h-4.5v.6zm-.3-1.784v1.484h.6v-1.484h-.6zm3.8-.3h-3.5v.6h3.5v-.6zm-.3-2.42v2.72h.6v-2.72h-.6zm-.687-4.11a12.64 12.64 0 01.687 4.11h.6c0-1.507-.256-2.952-.72-4.305l-.567.195zM41 121.371h11.547v-.6H41v.6zm-2.05-2.032c0 1.123.922 2.032 2.05 2.032v-.6c-.802 0-1.45-.646-1.45-1.432h-.6zm0-3.958v3.958h.6v-3.958h-.6zm2.05-2.032c-1.128 0-2.05.908-2.05 2.032h.6c0-.787.648-1.432 1.45-1.432v-.6zm5.111 0H41v.6h5.111v-.6zm-6.113-.885c2.154 0 4.187.527 5.976 1.451l.275-.533a13.599 13.599 0 00-6.251-1.518v.6zm-25.496 0h25.496v-.6H14.502v.6zm-4.452 4.403c0-2.423 1.993-4.403 4.452-4.403v-.6c-2.784 0-5.052 2.242-5.052 5.003h.6zm0 2.719v-2.719h-.6v2.719h.6zm7.235-.3H9.75v.6h7.535v-.6zm.3 1.785v-1.485h-.6v1.485h.6zm-7.835.3h7.535v-.6H9.75v.6zm.3 6.627v-6.927h-.6v6.927h.6zm.7-.3h-1v.6h1v-.6zm.3 1.784v-1.484h-.6v1.484h.6zm-3.3.3h3v-.6h-3v.6zm.3.195v-.495h-.6v.495h.6zm4.014-.3H7.75v.6h4.314v-.6zm4.686-3.958c-2.512 0-4.595 1.826-4.982 4.21l.592.096c.34-2.096 2.175-3.706 4.39-3.706v-.6zm4.982 4.21c-.385-2.385-2.47-4.21-4.982-4.21v.6c2.215 0 4.051 1.61 4.39 3.706l.592-.096zm17.082-.252H21.435v.6h17.38v-.6zm4.686-3.958c-2.511 0-4.595 1.826-4.982 4.21l.593.096c.34-2.096 2.174-3.706 4.389-3.706v-.6z" fill="#222532"/><path fill-rule="evenodd" clip-rule="evenodd" d="M28.75 115.38v3.959c0 .954-.785 1.731-1.75 1.731h-5c-.965 0-1.75-.777-1.75-1.731v-3.959c0-.955.785-1.732 1.75-1.732h5c.965 0 1.75.777 1.75 1.732zm-7 0v3.959c0 .135.115.247.25.247h5c.135 0 .25-.114.25-.247v-3.959a.253.253 0 00-.25-.247h-5a.253.253 0 00-.25.247z" fill="#fff"/><path d="M29.05 119.339v-3.959h-.6v3.959h.6zM27 121.37c1.128 0 2.05-.908 2.05-2.031h-.6c0 .786-.648 1.431-1.45 1.431v.6zm-5 0h5v-.6h-5v.6zm-2.05-2.031c0 1.123.922 2.031 2.05 2.031v-.6c-.802 0-1.45-.645-1.45-1.431h-.6zm0-3.959v3.959h.6v-3.959h-.6zm2.05-2.032c-1.128 0-2.05.909-2.05 2.032h.6c0-.786.648-1.432 1.45-1.432v-.6zm5 0h-5v.6h5v-.6zm2.05 2.032a2.044 2.044 0 00-2.05-2.032v.6c.802 0 1.45.646 1.45 1.432h.6zm-7 3.959v-3.959h-.6v3.959h.6zm-.05-.053c.017 0 .028.007.035.013.007.007.015.02.015.04h-.6c0 .305.254.547.55.547v-.6zm5 0h-5v.6h5v-.6zm-.05.053c0-.021.009-.034.015-.04a.048.048 0 01.035-.013v.6c.297 0 .55-.245.55-.547h-.6zm0-3.959v3.959h.6v-3.959h-.6zm.05.053a.053.053 0 01-.035-.013.058.058 0 01-.015-.04h.6a.553.553 0 00-.55-.547v.6zm-5 0h5v-.6h-5v.6zm.05-.053a.058.058 0 01-.015.04.053.053 0 01-.035.013v-.6a.553.553 0 00-.55.547h.6z" fill="#222532"/><path fill-rule="evenodd" clip-rule="evenodd" d="M31.5 113.648h5c.965 0 1.75.777 1.75 1.732v3.959c0 .954-.785 1.731-1.75 1.731h-5c-.965 0-1.75-.777-1.75-1.731v-3.959c0-.955.785-1.732 1.75-1.732zm5 5.938c.135 0 .25-.114.25-.247v-3.959a.253.253 0 00-.25-.247h-5a.253.253 0 00-.25.247v3.959c0 .133.115.247.25.247h5z" fill="#fff"/><path d="M36.5 113.348h-5v.6h5v-.6zm2.05 2.032a2.044 2.044 0 00-2.05-2.032v.6c.802 0 1.45.646 1.45 1.432h.6zm0 3.959v-3.959h-.6v3.959h.6zm-2.05 2.031c1.128 0 2.05-.908 2.05-2.031h-.6c0 .786-.648 1.431-1.45 1.431v.6zm-5 0h5v-.6h-5v.6zm-2.05-2.031c0 1.123.922 2.031 2.05 2.031v-.6c-.802 0-1.45-.645-1.45-1.431h-.6zm0-3.959v3.959h.6v-3.959h-.6zm2.05-2.032c-1.128 0-2.05.909-2.05 2.032h.6c0-.786.648-1.432 1.45-1.432v-.6zm4.95 5.991a.06.06 0 01.014-.04.048.048 0 01.036-.013v.6c.297 0 .55-.245.55-.547h-.6zm0-3.959v3.959h.6v-3.959h-.6zm.05.053a.053.053 0 01-.035-.013.058.058 0 01-.015-.04h.6a.553.553 0 00-.55-.547v.6zm-5 0h5v-.6h-5v.6zm.05-.053a.058.058 0 01-.015.04.053.053 0 01-.035.013v-.6a.553.553 0 00-.55.547h.6zm0 3.959v-3.959h-.6v3.959h.6zm-.05-.053c.018 0 .03.007.035.013a.058.058 0 01.015.04h-.6c0 .302.253.547.55.547v-.6zm5 0h-5v.6h5v-.6z" fill="#222532"/><path fill-rule="evenodd" clip-rule="evenodd" d="M41.5 130.719a1.99 1.99 0 012-1.979c1.103 0 2 .889 2 1.979a1.99 1.99 0 01-2 1.979c-1.103 0-2-.887-2-1.979zm1.5 0a.5.5 0 001 0 .498.498 0 00-.5-.495c-.275 0-.5.222-.5.495z" fill="#fff"/><path d="M43.5 128.44c-1.266 0-2.3 1.018-2.3 2.279h.6c0-.924.76-1.679 1.7-1.679v-.6zm2.3 2.279c0-1.259-1.034-2.279-2.3-2.279v.6c.94 0 1.7.757 1.7 1.679h.6zm-2.3 2.279c1.266 0 2.3-1.019 2.3-2.279h-.6c0 .923-.76 1.679-1.7 1.679v.6zm-2.3-2.279c0 1.26 1.034 2.279 2.3 2.279v-.6c-.94 0-1.7-.756-1.7-1.679h-.6zm2.3.195a.198.198 0 01-.2-.195h-.6c0 .441.362.795.8.795v-.6zm.2-.195a.198.198 0 01-.2.195v.6c.438 0 .8-.354.8-.795h-.6zm-.2-.195c.113 0 .2.091.2.195h.6a.799.799 0 00-.8-.795v.6zm-.2.195c0-.104.087-.195.2-.195v-.6c-.438 0-.8.354-.8.795h.6z" fill="#222532"/><path fill-rule="evenodd" clip-rule="evenodd" d="M14.75 130.719a1.99 1.99 0 012-1.979c1.104 0 2 .889 2 1.979a1.99 1.99 0 01-2 1.979c-1.104 0-2-.889-2-1.979zm1.5 0a.5.5 0 001 0 .498.498 0 00-.5-.495c-.275 0-.5.222-.5.495z" fill="#fff"/><path d="M16.75 128.44c-1.266 0-2.3 1.018-2.3 2.279h.6c0-.924.76-1.679 1.7-1.679v-.6zm2.3 2.279c0-1.259-1.034-2.279-2.3-2.279v.6c.94 0 1.7.757 1.7 1.679h.6zm-2.3 2.279c1.266 0 2.3-1.019 2.3-2.279h-.6c0 .923-.76 1.679-1.7 1.679v.6zm-2.3-2.279c0 1.258 1.034 2.279 2.3 2.279v-.6c-.94 0-1.7-.758-1.7-1.679h-.6zm2.3.195a.198.198 0 01-.2-.195h-.6c0 .441.362.795.8.795v-.6zm.2-.195a.198.198 0 01-.2.195v.6c.438 0 .8-.354.8-.795h-.6zm-.2-.195c.113 0 .2.091.2.195h.6a.799.799 0 00-.8-.795v.6zm-.2.195c0-.104.087-.195.2-.195v-.6c-.438 0-.8.354-.8.795h.6z" fill="#222532"/><path d="M22.25 127.997h15.5v1.485h-15.5v-1.485z" fill="#fff" stroke="#222532" stroke-width=".6"/><g filter="url(#filter0_d)" fill="#fff"><path d="M49.037 225.188H40.75a.484.484 0 00-.481.485c0 .268.216.486.481.486h8.287a.484.484 0 00.482-.486.484.484 0 00-.482-.485zm0 6.152h-9.291a.484.484 0 00-.482.485c0 .268.217.486.482.486h9.291a.484.484 0 00.482-.486.484.484 0 00-.482-.485zm-37.555-2.648h7.492a.484.484 0 00.482-.486.484.484 0 00-.482-.485h-7.492a.484.484 0 00-.482.485c0 .269.216.486.482.486z"/><path fill-rule="evenodd" clip-rule="evenodd" d="M14.745 193.535a.479.479 0 01.555.092v.001a.49.49 0 01.088.561 4.263 4.263 0 00-.45 1.911c0 2.377 1.93 4.313 4.3 4.313a4.25 4.25 0 001.907-.453.479.479 0 01.555.092.489.489 0 01.09.56 5.231 5.231 0 01-4.711 2.94c-2.902 0-5.263-2.372-5.263-5.286a5.256 5.256 0 012.929-4.731zm5.383 7.772a5.174 5.174 0 01-.89.076c-2.902 0-5.262-2.37-5.26-5.284 0-.303.024-.601.075-.894a4.285 4.285 0 00-1.274 3.061c0 2.379 1.93 4.315 4.3 4.315a4.255 4.255 0 003.049-1.274zm28.911 16.103h-.002a.484.484 0 00-.481.483l-.012 2.592-17.867-26.562c-.179-.267-.617-.267-.797 0l-17.855 26.543.012-2.751a.483.483 0 00-.48-.487h-.002a.484.484 0 00-.481.483l-.017 4.342a.485.485 0 00.481.487.486.486 0 00.399-.212l2.81-4.177v3.905c0 .268.216.486.481.486h10.724a4.369 4.369 0 004.168 3.094l.019-.001.019-.001.01.001.009.001.017-.002.01-.001a4.366 4.366 0 004.081-3.091H45.33a.484.484 0 00.482-.486v-3.905l2.81 4.177a.477.477 0 00.538.191.486.486 0 00.34-.463l.019-4.159a.482.482 0 00-.48-.487zm-18.806 7.25h-.006a1.534 1.534 0 01-1.582-1.528c0-.552.805-1.822 1.531-2.78.726.958 1.531 2.228 1.531 2.78 0 .824-.656 1.497-1.474 1.528zm2.435-1.53c0 .144-.018.28-.041.417.551-.607.89-1.409.886-2.29 0-1.454-2.19-4.548-3.397-6.088-1.205 1.54-3.397 4.636-3.397 6.088 0 .955.397 1.82 1.031 2.44a2.571 2.571 0 01-.07-.567c0-1.229 1.77-3.437 2.124-3.868a.496.496 0 01.741 0c.355.431 2.123 2.639 2.123 3.868zm-2.177-9.041a.496.496 0 00-.742 0c-.408.495-3.989 4.908-3.989 7.168 0 .076.005.151.01.226l.005.089h-4.848v-3.2c.628-.512 2.71-2.287 4.818-4.92 1.712-2.136 3.666-5.156 4.552-8.599.886 3.444 2.84 6.462 4.551 8.599 2.109 2.633 4.19 4.408 4.82 4.92v3.2h-5.205c.007-.105.015-.209.015-.315.002-2.26-3.58-6.673-3.987-7.168zm10.137 7.483h4.22l.003-4.852-14.57-21.659L15.71 216.72v4.852h4.252v-3.436c0-.151.07-.293.188-.384v-.001c.117-.091 9.663-7.634 9.663-16.561 0-.267.217-.485.482-.485s.481.218.481.485c0 8.924 9.54 16.464 9.663 16.561v.001a.488.488 0 01.189.384v3.436z"/><path fill-rule="evenodd" clip-rule="evenodd" d="M37.596 227.433a.488.488 0 01-.304.622l-1.781.593 1.711.487a.486.486 0 01.331.605l-.615 2.089a.48.48 0 01-.592.328l-6.128-1.746-5.624 1.875a.474.474 0 01-.602-.301l-.709-2.061a.485.485 0 01.303-.62l1.486-.495-1.785-.508a.484.484 0 01-.331-.604l.615-2.09a.48.48 0 01.592-.33l6.201 1.767 5.917-1.973a.48.48 0 01.606.301l.709 2.061zm-13.237-1.092l-.342 1.158 2.686.766 2.03-.677-4.374-1.247zm12.131 3.594l-.342 1.159-4.3-1.227 2.032-.677 2.61.745zm-12.14.137l.393 1.143 11.783-3.928-.393-1.143-11.783 3.928z"/></g><path fill-rule="evenodd" clip-rule="evenodd" d="M59.598 43.861a.52.52 0 01-.036.083.172.172 0 01-.056.073.95.95 0 01-.033.048l-.016.024c-.019.023-.04.05-.061.073a1.282 1.282 0 01-.17.144 2.174 2.174 0 01-.056.033l-.014.008a.716.716 0 01-.157.07.334.334 0 01-.038.013c-.005.002-.01.002-.013.002h-.013a.893.893 0 01-.226.032c-.106 0-.143.016-.143.016-.044.05-.122.304-.172.464l-.005.016c-.183.593-.567 1.827-2.116 1.827-1.326 0-1.984-.888-2.466-1.538l-.004-.005c-.451-.614-.623-.78-.961-.78-.34 0-.508.166-.962.778l-.004.005c-.481.65-1.14 1.538-2.468 1.538-1.326 0-1.984-.889-2.466-1.538l-.003-.005c-.452-.612-.624-.778-.962-.778-.337 0-.508.166-.962.78-.48.65-1.14 1.543-2.47 1.543-1.328 0-1.986-.888-2.468-1.538l-.003-.005c-.452-.612-.623-.778-.962-.778-.339 0-.508.166-.962.778-.48.65-1.138 1.543-2.47 1.543-1.325 0-1.983-.888-2.465-1.538l-.004-.005c-.451-.612-.623-.778-.962-.778-.336 0-.507.166-.961.78-.48.651-1.14 1.543-2.47 1.543-1.325 0-1.984-.888-2.466-1.538l-.003-.004c-.452-.612-.623-.779-.962-.779-.336 0-.508.167-.962.781-.48.65-1.14 1.543-2.47 1.543a1.4 1.4 0 01-1.074-.487c-.656-.754-.524-2.04-.254-4.077l.005-.035c.096-.737.244-1.86.195-2.407-1.757.346-4.25 3.9-5.543 6.484a.937.937 0 01-.84.522c-.018 0-.037 0-.056-.002a.937.937 0 01-.828-.622c-.216-.603-2.065-5.974-.143-8.945.72-1.11 1.886-1.75 3.377-1.847 1.296-.085 1.888-.436 2.001-.714.075-.185-.045-.5-.308-.802-.7-.805-2.267-1.45-4.05-.961-2.471.674-5.242 4.018-6.175 7.454-.327 1.208-.68 3.444.656 4.828a.957.957 0 01-.019 1.343.934.934 0 01-1.331-.02c-1.475-1.525-1.872-3.889-1.122-6.651.971-3.58 4.043-7.844 7.5-8.786 2.575-.703 4.844.266 5.954 1.54.77.88 1 1.894.635 2.782-.317.771-1.201 1.725-3.619 1.884-.9.06-1.529.384-1.921.99-.793 1.224-.61 3.396-.25 5.128 1.412-2.285 3.888-5.605 6.451-5.525.414.015.788.195 1.051.51.264.314.393.72.44 1.223 1.731-1.156 4.257-2.3 9.243-2.808-5.405-22.095 4.755-34.533 5.216-35.081l.011-.01a.384.384 0 01.16-.147c.03-.02.058-.035.089-.052l.02-.012a.475.475 0 01.059-.033.917.917 0 01.136-.045l.033-.009a.9.9 0 01.214-.027l.139.005c.277 0 .538.121.717.335.46.545 10.57 12.92 5.263 34.908 13.88.82 15.578 6.41 15.643 6.654.003.01.003.022.005.031l.014.093c.005.033.01.066.01.1a.08.08 0 000 .006v.008l.002.007v.007a.275.275 0 01-.004.049v.009a.718.718 0 01-.02.138l-.011.046-.005.017-.003.011a.563.563 0 01-.02.062zm-20.79-4.314h2.432c5.355-17.673.317-29.587-2.432-34.317v34.317zM36.927 5.479v34.068h-2.293c-5.252-17.33-.478-29.168 2.293-34.068zM56.599 44.42l.005-.015c.11-.356.298-.94.761-1.35-1.041-1.33-4.327-4.059-13.863-4.555-.207.752-.43 1.514-.675 2.288a.943.943 0 01-.896.662H33.94a.943.943 0 01-.896-.662 70.894 70.894 0 01-.628-2.131c-6.046.574-8.21 2.105-9.863 3.396l-.022.166c-.01.087-.022.175-.035.268-.091.693-.232 1.76-.204 2.33.171-.102.345-.31.628-.695l.003-.004c.482-.65 1.14-1.538 2.468-1.538 1.326 0 1.985.888 2.466 1.538l.004.004c.451.612.623.779.962.779.338 0 .508-.167.961-.779l.004-.004c.482-.65 1.14-1.538 2.468-1.538 1.326 0 1.984.888 2.466 1.538l.003.004c.454.612.626.779.962.779.339 0 .508-.167.962-.779.48-.65 1.139-1.542 2.47-1.542 1.325 0 1.984.888 2.465 1.538l.004.004c.454.615.625.781.964.781.339 0 .508-.166.962-.778l.003-.005c.482-.65 1.14-1.538 2.469-1.538 1.325 0 1.984.888 2.466 1.538l.003.005c.452.612.623.778.962.778.338 0 .51-.166.964-.78.48-.651 1.14-1.543 2.47-1.543 1.327 0 1.986.888 2.468 1.538l.003.004c.454.612.626.779.962.779.106 0 .143-.017.143-.017.044-.05.122-.304.172-.464z" fill="#fff"/><path d="M59.562 43.944l-.44-.238.758.624-.318-.386zm.036-.083l-.463-.19-.006.016-.006.017.475.157zm-.035.083l.448.222-.766-.608.318.386zm-.057.073l-.279-.414-.087.058-.057.09.423.266zm-.033.048l.407.292-.407-.292zm-.016.024l.392.31.01-.012.009-.013-.411-.285zm-.061.073l.355.352.01-.01.008-.009-.373-.333zm-.059.057l-.334-.372-.01.01-.011.01.355.352zm-.075.064l.279.415.008-.006.009-.006-.296-.403zm-.035.023l-.27-.421.27.421zm-.036.022l.225.447.018-.009.016-.01-.259-.428zm-.02.011l-.242-.438.241.438zm-.015.008l-.244-.436.244.436zm-.05.026l-.21-.453-.008.003-.007.004.225.446zm-.029.013l-.186-.464.186.464zm-.033.013l-.171-.47.171.47zm-.027.01l.177.468.004-.002-.18-.466zm-.018.008l.2.458-.2-.458zm-.018.007l.18.467-.18-.467zm-.02.006l-.11-.488-.013.004.123.484zm-.014.002v-.5h-.002l.002.5zm-.012 0l-.122-.484h-.004l.126.485zm-.37.048l-.201-.457-.104.046-.074.086.38.325zm-.171.464l.477.149-.477-.149zm-.005.016l-.477-.149.477.149zm-4.582.289l-.402.297.402-.297zm-.004-.005l-.403.296.002.002.401-.298zm-1.923-.002l.401.298-.401-.298zm-.004.005l-.401-.298.401.297zm-4.934 0l.402-.298-.402.297zm-.003-.005l-.403.297h.001l.402-.297zm-1.924.002l-.402-.297.402.297zm-4.938.005l.402-.298-.402.298zm-.003-.005l-.403.297.001.001.402-.298zm-1.924 0l-.402-.297.402.297zm-4.935.005l.401-.298-.401.298zm-.004-.005l-.402.297v.001l.402-.298zm-1.923.003l-.403-.297.403.297zm-4.936.004l.402-.297-.402.297zm-.003-.004l-.402.297.402-.297zm-1.924.002l-.402-.297.402.297zm-3.544 1.056l.379-.326-.002-.002-.377.328zm-.254-4.077l.496.066-.496-.066zm.005-.035l-.496-.065.496.065zm.195-2.407l.498-.044-.05-.554-.545.107.097.491zm-5.543 6.484l-.447-.224-.001.002.448.222zm-.896.52l.063-.496-.017-.003h-.017l-.029.499zm-.828-.622l.471-.168v-.001l-.47.169zm-.143-8.945l-.42-.272.42.272zm3.377-1.847l.032.5-.032-.5zm2.001-.714l.463.188-.463-.188zm-.308-.802l-.377.328.377-.328zm-4.05-.961l.132.482-.132-.482zm-6.175 7.454l-.483-.13.483.13zm.656 4.828l.36-.347-.36.347zm-.019 1.343l.35.357-.35-.357zm-1.331-.02l.36-.346-.36.347zm-1.122-6.651l.483.13-.483-.13zm7.5-8.786l.131.482-.131-.482zm5.954 1.54l-.377.329.377-.329zm.635 2.782l.463.19-.463-.19zm-3.619 1.884l-.033-.499.033.5zm-1.921.99l-.42-.273v.001l.42.272zm-.25 5.128l-.49.102.256 1.23.66-1.069-.426-.263zm6.451-5.525l.017-.5h-.001l-.016.5zm1.051.51l-.383.32v.002l.383-.321zm.44 1.223l-.498.046.078.835.698-.465-.278-.416zm9.243-2.808l.05.498.572-.059-.136-.558-.486.12zM37.146 1.71l-.355-.352-.015.015-.013.015.383.322zm.011-.01l.313.39-.313-.39zm.015-.014l-.37-.337-.016.019-.016.02.402.298zm.087-.083l.325.38.015-.013.015-.015-.355-.352zm.059-.05l-.28-.414.28.414zm.088-.052l.245.435-.245-.435zm.02-.012l.245.436.011-.006.01-.007-.266-.423zm.059-.033l-.196-.46L37.28 1l.205.456zm.136-.045L37.55.916l-.026.004-.025.006.122.485zm.033-.009l.16.474.004-.002-.164-.472zm0 0l-.16-.474-.004.002.164.472zm.016-.005l-.11-.488-.014.003-.014.004.138.48zm.198-.022l.017-.5h-.017v.5zm.139.005l-.017.5h.017v-.5zm.717.335l-.383.32.001.002.382-.322zm5.263 34.908l-.486-.117-.14.58.597.036.03-.5zm15.643 6.654l.486-.12-.003-.01-.483.13zm.005.031l.495-.075-.004-.023-.005-.022-.486.12zm.014.093l.495-.07v-.006l-.495.076zm.01.106l-.498.046.001.01.497-.056zm0 .008l-.496.056v.005l.497-.061zm.002.007l.498-.043-.498.043zm0 .025l-.5-.036.5.036zm-.004.03l-.496-.061.496.062zm0 .007l-.497-.063-.001.014-.001.013.498.035zm0 .003l-.5-.035.5.035zm-.012.098l-.49-.103-.002.01-.002.012.494.081zm-.004.022l.49.099-.49-.099zm-.004.018l-.488-.11v.001l.488.11zm-.011.046l.48.141.002-.01.003-.01-.485-.121zm-.005.017l-.48-.142-.001.005.481.136zm-.003.011l-.481-.136.48.136zM41.24 39.547v.5h.37l.108-.355-.478-.145zm-2.432 0h-.5v.5h.5v-.5zm0-34.317l.432-.252-.932-1.604V5.23h.5zm-1.881 34.317v.5h.5v-.5h-.5zm0-34.068h.5v-1.9l-.935 1.654.435.246zm-2.293 34.068l-.479.145.108.355h.37v-.5zm21.97 4.858l.477.148.232-.746-.774.102.065.496zm-.005.015l.478.148-.478-.148zm.004-.015l-.477-.149-.232.746.774-.102-.065-.495zm.762-1.35l.332.373.352-.312-.29-.37-.394.308zM43.502 38.5l.026-.5-.402-.02-.106.387.482.133zm-.675 2.288l.477.15-.477-.15zm-9.783 0l-.477.15.477-.15zm-.628-2.131l.482-.135-.113-.403-.416.04.047.498zm-9.863 3.396l-.308-.394-.161.126-.027.202.496.066zm-.022.166l.497.063-.497-.063zm-.035.268l-.495-.069v.003l.495.066zm-.204 2.33l-.5.025.041.83.714-.425-.255-.43zm.628-.695l-.402-.297-.001.001.403.296zm.003-.004l-.402-.298.402.298zm4.934 0l-.401.297.401-.297zm.004.004l.402-.297-.402.297zm1.923 0l.402.298-.402-.298zm.004-.004l-.402-.298.402.298zm4.934 0l-.402.297.402-.297zm.003.004l.402-.298-.402.298zm1.924 0l.402.298v-.001l-.402-.297zm4.935-.004l.402-.298-.401.298zm.004.004l.402-.297-.402.297zm1.926.003l-.402-.298.402.298zm.003-.005l-.401-.298.401.298zm4.935 0l-.402.298.402-.298zm.003.005l.402-.297v-.001l-.402.298zm1.926-.003l.402.297-.402-.297zm4.938-.004l-.402.297.402-.297zm.003.004l.402-.298-.402.298zm1.105.762l.202.457.104-.046.074-.086-.38-.325zm3.575-.702c.03-.057.053-.113.07-.164l-.95-.314a.05.05 0 01-.001.005l.001-.003.88.476zm-.757-.624l.635.772-.635-.772zm.54.874c.148-.1.21-.236.226-.266l-.896-.444c-.014.027.02-.058.112-.12l.558.83zm.095-.075c.01-.014.03-.041.05-.073l-.847-.533a.501.501 0 01-.016.023l.813.583zm-.012.017l.012-.017-.813-.583a3.188 3.188 0 00-.02.03l.82.57zm-.099.121c.03-.035.06-.07.08-.096l-.784-.621a1.144 1.144 0 01-.042.051l.746.666zm-.098.096c.034-.03.062-.06.08-.077l-.71-.704-.038.037.668.744zm-.113.095c.04-.03.088-.068.134-.115l-.71-.704-.004.004a.211.211 0 01-.012.01l.592.805zm-.062.042l.045-.03-.558-.83-.026.017.539.843zm-.046.028l.046-.029-.539-.842a1.18 1.18 0 01-.025.016l.518.855zm-.039.022l.005-.003-.45-.893a1.198 1.198 0 00-.037.02l.482.876zm-.01.006l.01-.007-.482-.876-.017.01.488.873zm-.083.043c.037-.018.069-.036.082-.043l-.488-.873a.701.701 0 01-.016.009c-.002.001-.002.001 0 0l.422.907zm-.055.023a.877.877 0 00.069-.03l-.45-.893.01-.005.371.928zm-.047.018l.048-.018-.373-.928a.62.62 0 01-.018.007l.343.94zm-.018.007l.018-.007-.343-.939-.037.014.362.932zm.002 0l.003-.002-.009.004-.354-.936-.042.018.402.915zm-.039.016l.039-.016-.402-.916-.003.001.007-.003.359.934zm-.09.027a.648.648 0 00.09-.027l-.359-.934a.337.337 0 01.05-.014l.218.975zm-.123.014s.063.001.135-.017l-.245-.97c.063-.015.117-.014.11-.014v1zm-.002 0h.002v-1h-.002v1zm.11-.014c-.056.014-.103.014-.108.014l-.003-1c-.013 0-.067 0-.132.016l.244.97zm-.347.046c.129 0 .247-.02.352-.047l-.252-.968a.396.396 0 01-.1.015v1zm-.143-.484l.201.458h-.001l-.002.001-.004.002-.007.003a1.573 1.573 0 01-.036.012.284.284 0 01-.03.008c-.01.002-.005 0 .022 0v-1a1.116 1.116 0 00-.28.035.627.627 0 00-.05.017l-.008.004-.004.001-.001.001h-.001l.2.458zm.306.612a8.186 8.186 0 01.115-.344l.003-.006a.4.4 0 01-.044.063l-.76-.65c-.068.079-.106.172-.118.2a4.672 4.672 0 00-.151.441l.955.296zm-.005.016l.005-.015-.956-.297-.004.015.955.297zm-2.594 2.179c.932 0 1.555-.382 1.958-.875.381-.467.546-1.014.636-1.305l-.955-.295c-.094.302-.213.67-.456.968-.222.272-.566.507-1.183.507v1zm-2.868-1.74c.474.639 1.268 1.74 2.868 1.74v-1c-1.052 0-1.575-.675-2.065-1.336l-.803.596zm-.003-.005l.003.005.804-.596-.004-.004-.803.595zm-.56-.578c.042 0 .057.005.062.006a.19.19 0 01.056.037c.087.073.209.218.44.533l.806-.592c-.22-.299-.41-.545-.605-.708a1.122 1.122 0 00-.76-.276v1zm-.56.576c.233-.315.354-.46.442-.533a.193.193 0 01.056-.037.183.183 0 01.062-.006v-1c-.283 0-.524.08-.759.275-.195.163-.385.408-.605.705l.803.596zm-.004.004l.003-.004-.803-.596-.003.005.803.595zm-2.87 1.74c1.602 0 2.396-1.1 2.87-1.74l-.803-.595c-.49.66-1.013 1.336-2.067 1.336v1zm-2.868-1.74c.474.64 1.268 1.74 2.868 1.74v-1c-1.051 0-1.575-.675-2.064-1.335l-.804.595zm-.003-.004l.004.004.803-.595-.004-.005-.803.596zm-.56-.576c.042 0 .057.005.062.006a.195.195 0 01.056.037c.088.073.21.217.441.532l.805-.594c-.22-.298-.41-.543-.606-.706a1.123 1.123 0 00-.758-.275v1zm-.56.577c.233-.315.355-.46.444-.534a.197.197 0 01.056-.037.166.166 0 01.06-.006v-1c-.282 0-.523.08-.758.276-.195.163-.386.408-.606.707l.804.594zm-2.872 1.746c1.604 0 2.4-1.106 2.872-1.746l-.805-.593c-.487.66-1.013 1.339-2.067 1.339v1zm-2.87-1.74c.475.64 1.268 1.74 2.87 1.74v-1c-1.053 0-1.577-.676-2.066-1.336l-.803.596zm-.003-.005l.004.005.803-.596-.004-.004-.803.595zm-.56-.576a.19.19 0 01.062.007.195.195 0 01.056.037c.088.073.21.217.441.531l.805-.593c-.22-.298-.41-.543-.605-.707a1.123 1.123 0 00-.759-.275v1zm-.56.576c.233-.315.355-.46.443-.533a.191.191 0 01.055-.037.185.185 0 01.062-.006v-1c-.282 0-.524.08-.758.276-.195.163-.385.407-.606.705l.804.595zm-2.871 1.745c1.606 0 2.4-1.106 2.871-1.746l-.804-.593c-.488.66-1.011 1.339-2.067 1.339v1zm-2.868-1.74c.474.639 1.268 1.74 2.868 1.74v-1c-1.051 0-1.575-.675-2.064-1.336l-.804.596zm-.003-.005l.003.005.803-.596-.003-.005-.803.596zm-.56-.576c.042 0 .057.005.062.007a.193.193 0 01.056.037c.088.073.21.217.441.531l.805-.593c-.22-.298-.41-.543-.606-.707a1.123 1.123 0 00-.759-.275v1zm-.56.578c.233-.316.355-.46.443-.534a.194.194 0 01.056-.038.178.178 0 01.06-.006v-1c-.281 0-.523.08-.757.276-.195.163-.386.409-.607.708l.805.594zm-2.872 1.745c1.604 0 2.4-1.105 2.872-1.745l-.805-.594c-.487.66-1.013 1.34-2.067 1.34v1zm-2.867-1.74c.474.64 1.267 1.74 2.867 1.74v-1c-1.05 0-1.574-.675-2.064-1.335l-.803.595zm-.004-.004l.004.004.803-.596-.003-.004-.804.596zm-.56-.577c.043 0 .058.005.062.007a.191.191 0 01.057.037c.087.073.209.217.44.532l.805-.594c-.22-.298-.41-.543-.605-.706a1.123 1.123 0 00-.759-.276v1zm-.56.578c.233-.315.356-.46.444-.534a.197.197 0 01.056-.037.178.178 0 01.06-.007v-1c-.282 0-.523.08-.757.277-.196.163-.386.408-.607.707l.805.594zm-2.871 1.746c1.603 0 2.4-1.106 2.872-1.746l-.805-.594c-.487.66-1.013 1.34-2.067 1.34v1zm-1.453-.66a1.9 1.9 0 001.453.66v-1a.9.9 0 01-.696-.313l-.757.653zm-.372-4.47c-.134 1.01-.24 1.88-.224 2.597.016.72.158 1.37.597 1.874l.755-.656c-.217-.25-.338-.62-.352-1.241-.015-.625.08-1.415.216-2.442l-.992-.132zm.005-.034l-.005.035.992.13.005-.035-.992-.13zm.193-2.298c.02.222 0 .597-.043 1.04a38.5 38.5 0 01-.15 1.258l.992.13c.048-.367.11-.84.154-1.292.042-.44.072-.9.043-1.224l-.996.088zm-4.598 6.664c.633-1.265 1.561-2.77 2.541-3.993.49-.612.984-1.143 1.452-1.537.477-.402.884-.625 1.2-.687l-.194-.982c-.562.111-1.125.462-1.65.904-.535.45-1.074 1.035-1.588 1.677a24.703 24.703 0 00-2.655 4.17l.894.448zm-1.287.798c.542 0 1.043-.306 1.288-.8l-.896-.444a.437.437 0 01-.392.244v1zm-.119-.006c.056.007.106.006.12.006v-1h-.014l.019.002-.126.992zm-1.236-.95c.195.544.695.92 1.27.953l.058-.999a.437.437 0 01-.386-.29l-.942.336zm-.092-9.385c-1.064 1.646-1.057 3.889-.805 5.701.255 1.839.784 3.369.898 3.685l.94-.338a18.719 18.719 0 01-.848-3.485c-.246-1.766-.203-3.694.655-5.02l-.84-.543zm3.764-2.074c-1.625.107-2.946.812-3.764 2.074l.84.544c.621-.96 1.633-1.531 2.99-1.62l-.066-.998zm1.571-.403c.02-.051.002.038-.284.155-.26.107-.675.208-1.287.248l.066.998c.684-.045 1.212-.161 1.601-.321.363-.15.697-.375.83-.704l-.926-.376zm-.221-.285c.102.117.162.221.19.294a.238.238 0 01.016.058c0 .002-.002-.025.015-.067l.926.376c.107-.262.05-.532-.023-.724a2.032 2.032 0 00-.371-.595l-.753.658zm-3.541-.808c1.608-.441 2.973.156 3.54.807l.754-.657c-.834-.957-2.602-1.651-4.559-1.114l.265.964zm-5.826 7.103c.447-1.642 1.336-3.274 2.414-4.575 1.085-1.31 2.314-2.229 3.411-2.528l-.263-.965c-1.375.376-2.767 1.466-3.918 2.855-1.16 1.4-2.121 3.157-2.609 4.951l.965.262zm.534 4.35c-.554-.574-.777-1.343-.812-2.154-.035-.812.122-1.617.278-2.196l-.965-.261c-.17.63-.353 1.546-.312 2.5.04.954.309 1.995 1.091 2.805l.72-.695zM9.25 46.88c.566-.557.58-1.47.029-2.046l-.722.693a.457.457 0 01-.009.64l.702.713zm-2.042-.028a1.434 1.434 0 002.04.03l-.698-.716a.434.434 0 01-.622-.008l-.72.694zm-1.244-7.13c-.778 2.865-.394 5.435 1.244 7.13l.72-.695c-1.31-1.356-1.722-3.513-1-6.173l-.964-.262zm7.85-9.137c-1.867.509-3.582 1.896-4.939 3.571-1.362 1.682-2.406 3.704-2.911 5.566l.965.262c.466-1.718 1.442-3.617 2.723-5.198 1.286-1.587 2.836-2.803 4.425-3.237l-.263-.964zm6.463 1.694c-1.235-1.418-3.701-2.448-6.463-1.694l.263.964c2.389-.651 4.461.256 5.446 1.387l.754-.657zm.72 3.3c.454-1.105.141-2.315-.72-3.3l-.753.657c.677.775.824 1.592.549 2.263l.925.38zm-4.048 2.193c1.268-.083 2.18-.378 2.83-.788.657-.414 1.023-.93 1.219-1.405l-.925-.38c-.122.295-.357.643-.826.939-.475.299-1.215.56-2.364.636l.066.998zm-1.535.763c.286-.44.749-.711 1.535-.763l-.066-.998c-1.015.067-1.808.447-2.308 1.216l.84.545zm-.18 4.755c-.175-.846-.304-1.785-.296-2.649.008-.877.156-1.612.476-2.107l-.84-.543c-.472.73-.627 1.693-.636 2.641-.009.96.134 1.974.318 2.861l.979-.203zm5.978-5.923c-1.496-.047-2.886.89-4.025 2.02-1.157 1.145-2.153 2.585-2.867 3.742l.85.525c.698-1.13 1.646-2.492 2.72-3.557 1.093-1.082 2.223-1.764 3.29-1.73l.032-1zm1.42.69a1.915 1.915 0 00-1.419-.69l-.034.999c.274.01.514.127.685.33l.767-.64zm.553 1.495c-.052-.559-.202-1.077-.555-1.497l-.765.643c.173.207.283.5.324.947l.996-.093zm8.694-3.258c-5.052.514-7.66 1.68-9.47 2.889l.556.832c1.651-1.103 4.096-2.225 9.015-2.726l-.1-.995zm4.884-34.906c-.52.619-10.775 13.217-5.319 35.522l.972-.238c-5.353-21.884 4.711-34.163 5.113-34.64l-.766-.644zm.083-.079c-.002.002-.028.022-.055.049l.71.704a.436.436 0 01-.025.023l-.007.006-.623-.782zm-.075.079a.45.45 0 01.056-.063l.019-.016.623.782a.599.599 0 00.104-.106l-.803-.597zm.163-.165a1.49 1.49 0 00-.131.126l.738.675a.477.477 0 01.043-.04l-.65-.761zm.105-.084a.888.888 0 00-.135.112l.71.704c.004-.004-.002.003-.017.013l-.559-.83zm.121-.074c-.027.016-.073.041-.121.074l.558.83a.827.827 0 01.054-.033l-.49-.871zm.02-.011l-.02.011.491.871.02-.011-.491-.871zm.1-.054c-.059.026-.106.057-.121.066l.534.846a.729.729 0 01.013-.008l-.017.008L37.28 1zm.219-.074a1.416 1.416 0 00-.21.07l.391.92a.423.423 0 01.063-.02L37.5.926zm-.005.002c-.007.003-.002 0 .005-.001a.378.378 0 01.05-.01l.143.989c.064-.01.12-.03.121-.03l-.319-.948zM37.49.93l.328.944L37.49.93zm.042-.014l-.037.012.318.948.003-.001-.007.002-.277-.96zm.336-.04a1.4 1.4 0 00-.307.033l.219.976a.4.4 0 01.088-.01v-1zm.156.004l-.139-.004-.034 1 .139.004.034-1zm1.083.514a1.432 1.432 0 00-1.1-.514v1c.13 0 .25.056.334.156l.766-.642zm5.366 35.346c5.359-22.197-4.846-34.731-5.367-35.348l-.764.645c.4.475 10.416 12.69 5.159 34.468l.972.235zm15.64 6.407c-.06-.223-.564-1.785-2.836-3.39-2.265-1.599-6.258-3.22-13.26-3.633l-.06.998c6.878.407 10.674 1.991 12.744 3.453 2.063 1.456 2.441 2.811 2.447 2.832l.965-.26zm.008.041c.005.02.007.036.008.043v.007c.001.001.001.002 0 0v-.008l-.002-.015a.586.586 0 00-.011-.058l-.97.24a.439.439 0 01-.01-.042v-.008s0-.001 0 0v.008l.003.016a.531.531 0 00.01.057l.972-.24zm.023.137l-.014-.092-.99.15.015.093.989-.15zm.015.175c0-.074-.01-.142-.015-.17l-.99.14.003.021.002.012V43.5h1zm-.002-.038a.42.42 0 01.002.038h-1l.002.053.996-.09zm0-.004l-.001-.007-.994.113.001.007.994-.113zm.002.02a.514.514 0 00-.003-.025l-.992.123c0 .002 0 0 0 0l-.001-.01.996-.087zm.002.05a.578.578 0 00-.002-.05l-.996.088a.396.396 0 01-.002-.037h1zm-.002.056a.787.787 0 00.002-.055h-1v-.018l.998.072zm-.006.056l.006-.056-.997-.073v-.004l-.001.009.992.124zm0 .005v-.005l-.992-.124v.006l.992.123zm.002-.023v-.003l-.997-.07v.003l.997.07zm-.021.167a.958.958 0 00.02-.167l-.997-.07-.001.02-.001.012v-.002l.979.207zm-.003.017a1.13 1.13 0 00.007-.039l-.987-.163v.005l.98.197zm-.006.029l.006-.03-.98-.197-.002.008.976.219zm-.014.056l.014-.056-.976-.219a1.83 1.83 0 01-.008.035l.97.24zm-.01.038l.005-.017-.96-.282-.005.016.96.282zm-.002.006l.003-.011-.962-.273-.003.012.962.272zm-.04.117c.022-.052.035-.101.04-.117l-.963-.271a1.11 1.11 0 00-.005.017l.004-.01.925.381zm-18.82-5.005h-2.43v1h2.43v-1zM38.377 5.48c2.696 4.639 7.691 16.41 2.385 33.92l.957.29c5.404-17.834.324-29.892-2.478-34.713l-.864.503zm.932 34.066V5.23h-1v34.317h1zm-1.881 0V5.479h-1v34.068h1zm-2.793.5h2.293v-1h-2.293v1zm1.858-34.814c-2.822 4.99-7.636 16.97-2.337 34.459l.957-.29c-5.203-17.17-.47-28.867 2.25-33.677l-.87-.492zm19.634 39.023l-.005.016.956.296.004-.015-.955-.297zm.542.644l-.13-.991.13.991zm.365-2.22c-.579.514-.799 1.226-.907 1.576l.955.297c.112-.362.268-.817.616-1.124l-.664-.749zM43.476 39c9.453.491 12.575 3.188 13.495 4.363l.788-.617C56.596 41.262 53.147 38.5 43.528 38l-.052.998zm-.172 1.938c.246-.78.471-1.547.68-2.305l-.964-.266a62.615 62.615 0 01-.67 2.27l.954.301zM41.93 41.95c.63 0 1.183-.413 1.373-1.011l-.954-.302a.443.443 0 01-.42.313v1zm-7.991 0h7.99v-1h-7.99v1zm-1.373-1.011c.19.598.742 1.01 1.373 1.01v-1a.442.442 0 01-.42-.312l-.953.302zm-.633-2.148c.197.704.405 1.419.633 2.146l.954-.298c-.224-.716-.43-1.42-.623-2.117l-.964.269zm-9.074 3.656c.813-.635 1.725-1.308 3.166-1.898 1.447-.593 3.45-1.11 6.437-1.395l-.094-.995c-3.059.29-5.162.825-6.722 1.464-1.565.642-2.561 1.38-3.402 2.036l.615.788zm.168-.165l.02-.164-.99-.13c-.009.056-.016.113-.023.168l.992.126zm-.036.274l.035-.274-.992-.126a21.21 21.21 0 01-.034.262l.99.138zm-.2 2.237c-.026-.513.105-1.524.2-2.24L22 42.421c-.089.67-.24 1.795-.209 2.421l1-.05zm-.275-.967c-.298.406-.413.521-.48.562l.51.86c.276-.164.509-.466.776-.83l-.806-.592zm.004-.006l-.003.005.803.595.004-.005-.804-.595zm2.87-1.74c-1.602 0-2.395 1.1-2.87 1.74l.804.595c.49-.66 1.013-1.335 2.066-1.335v-1zm2.868 1.74c-.474-.64-1.268-1.74-2.868-1.74v1c1.052 0 1.575.675 2.065 1.335l.803-.595zm.003.004l-.003-.004-.803.596.003.004.803-.596zm.56.577a.187.187 0 01-.062-.007.195.195 0 01-.056-.037c-.088-.073-.21-.217-.44-.532l-.806.594c.22.298.41.543.606.706.235.196.477.276.759.276v-1zm.56-.577c-.233.315-.354.46-.442.533a.19.19 0 01-.056.037.182.182 0 01-.061.007v1c.282 0 .523-.08.758-.276.195-.163.385-.408.605-.705l-.803-.596zm.004-.004l-.003.005.803.595.003-.005-.803-.595zm2.87-1.74c-1.602 0-2.396 1.1-2.87 1.74l.803.595c.49-.66 1.013-1.335 2.067-1.335v-1zm2.868 1.74c-.474-.64-1.268-1.74-2.868-1.74v1c1.051 0 1.575.675 2.064 1.335l.804-.595zm.003.004l-.003-.004-.804.596.004.004.803-.596zm.56.577a.178.178 0 01-.06-.007.195.195 0 01-.056-.037c-.088-.074-.21-.218-.444-.533l-.803.596c.22.298.411.542.606.705.234.195.476.276.757.276v-1zm.56-.577c-.233.315-.355.46-.442.533a.192.192 0 01-.056.037.183.183 0 01-.062.007v1c.283 0 .524-.08.759-.276.195-.163.385-.408.605-.705l-.803-.596zm2.871-1.744c-1.605 0-2.399 1.105-2.871 1.745l.804.594c.488-.66 1.011-1.34 2.067-1.34v-1zm2.868 1.74c-.474-.64-1.267-1.74-2.867-1.74v1c1.05 0 1.574.675 2.064 1.335l.803-.595zm.004.005l-.004-.005-.803.595.003.005.804-.595zm.562.578a.183.183 0 01-.062-.007.193.193 0 01-.057-.037c-.088-.073-.21-.218-.443-.534l-.804.594c.22.3.411.545.607.708.235.196.477.276.76.276v-1zm.56-.576c-.233.315-.355.46-.443.533-.035.029-.051.035-.055.037a.185.185 0 01-.062.006v1c.282 0 .524-.08.758-.276.195-.163.385-.407.606-.705l-.804-.595zm.004-.005l-.004.005.804.595.003-.004-.803-.596zm2.87-1.74c-1.602 0-2.396 1.1-2.87 1.74l.803.596c.49-.66 1.013-1.336 2.067-1.336v-1zm2.867 1.74c-.474-.639-1.267-1.74-2.867-1.74v1c1.05 0 1.574.675 2.064 1.336l.803-.596zm.004.005l-.004-.005-.803.596.003.005.804-.596zm.56.576a.184.184 0 01-.062-.007.197.197 0 01-.057-.037c-.087-.073-.209-.217-.44-.531l-.805.593c.22.298.41.543.605.706.235.196.477.276.759.276v-1zm.562-.578c-.233.316-.355.46-.443.534a.192.192 0 01-.057.037.181.181 0 01-.062.007v1c.282 0 .524-.08.759-.276.196-.163.386-.409.607-.708l-.804-.594zm2.871-1.745c-1.603 0-2.399 1.105-2.871 1.745l.804.594c.488-.66 1.014-1.34 2.067-1.34v-1zm2.87 1.74c-.474-.64-1.267-1.74-2.87-1.74v1c1.054 0 1.578.675 2.067 1.335l.803-.595zm.004.004l-.004-.004-.803.596.003.004.804-.596zm.56.577a.18.18 0 01-.06-.007.196.196 0 01-.057-.037c-.088-.074-.21-.218-.443-.533l-.804.596c.221.298.412.542.607.705.234.195.475.276.757.276v-1zm.143.483c-.202-.457-.201-.458-.201-.458h.001l.002-.001.004-.002.007-.003a.254.254 0 01.036-.012.276.276 0 01.03-.008c.01-.002.005 0-.022 0v1a1.123 1.123 0 00.28-.035.656.656 0 00.05-.017l.008-.003.004-.002h.002v-.001l-.2-.458zm-.306-.612a8.186 8.186 0 01-.115.345.246.246 0 01.008-.012.393.393 0 01.034-.046l.76.65c.067-.079.105-.172.117-.2.021-.048.04-.102.058-.151.035-.1.07-.211.094-.29l-.956-.296z" fill="#222532"/><path d="M7.288 31.136c-.12-.145-1.21-1.405-2.608-1.405-.646 0-1.57.268-2.297 1.542l-.812 1.424h7.02l-1.303-1.561z" fill="#fff" stroke="#222532"/><path fill-rule="evenodd" clip-rule="evenodd" d="M5.464 34.575l.966.102-.122.973c-.355 2.63-3.102 5.404-3.22 5.522l-1.272 1.272-.315-1.78c-.374-2.093-.108-3.702.788-4.782 1.253-1.512 3.175-1.307 3.175-1.307zM3.735 37.1a2.046 2.046 0 00-.378.752c.2-.301.392-.617.557-.935a1.64 1.64 0 00-.179.183z" fill="#fff"/><path d="M6.43 34.677l.497.062.063-.506-.507-.054-.053.498zm-.966-.102l-.053.497.053-.498zm.844 1.075l.496.067v-.005l-.496-.062zm-3.22 5.522l.354.354.002-.002-.355-.352zm-1.272 1.272l-.492.087.167.945.679-.678-.354-.354zm-.315-1.78l.493-.087-.493.087zm.788-4.782l.385.32-.385-.32zm1.068 1.97l-.48-.14-.054.186.085.174.449-.22zm.378-.752l.384.32.003-.003-.387-.317zm-.378.752l-.45.22.385.783.481-.727-.416-.276zm.557-.935l.444.23-.777-.603.333.373zm2.569-2.738l-.967-.102-.105.995.967.102.105-.995zm.321 1.533l.123-.973-.993-.125-.122.973.992.125zm-3.36 5.812c.067-.068.804-.812 1.571-1.88.759-1.054 1.594-2.487 1.789-3.927l-.991-.134c-.161 1.19-.876 2.458-1.61 3.477a15.357 15.357 0 01-1.47 1.76l.71.704zM2.17 42.798l1.272-1.272-.707-.708-1.272 1.273.707.707zM1.009 40.75l.315 1.78.985-.174-.315-1.78-.985.174zm.895-5.188c-1.03 1.24-1.281 3.026-.895 5.19l.984-.177c-.361-2.023-.081-3.456.68-4.374l-.769-.64zm3.56-.989l.052-.497h-.012l-.023-.003a3.91 3.91 0 00-.348-.008c-.225.005-.537.03-.892.107-.71.154-1.618.523-2.337 1.39l.77.638c.535-.645 1.215-.929 1.778-1.05a3.765 3.765 0 01.903-.083l.048.003h.01s0 .001 0 0h-.001l.052-.496zm-1.627 3.418a1.55 1.55 0 01.282-.571l-.767-.642a2.548 2.548 0 00-.475.933l.96.28zm-.031-.36l-.898.44.898-.44zm-.336-.945a9.695 9.695 0 01-.53.889l.833.552c.207-.31.41-.642.585-.981l-.888-.46zm.652.73c.034-.041.074-.082.125-.127l-.666-.746a2.135 2.135 0 00-.232.239l.773.634z" fill="#222532"/><path fill-rule="evenodd" clip-rule="evenodd" d="M12.707 29.291c0 .992-.802 1.8-1.785 1.8a1.793 1.793 0 01-1.783-1.8c0-.992.8-1.799 1.783-1.799.985 0 1.785.807 1.785 1.8zm-1.687 0a.1.1 0 00-.098-.1.098.098 0 00-.097.1c0 .11.195.11.195 0z" fill="#fff"/><path d="M10.922 31.59a2.295 2.295 0 002.285-2.299h-1c0 .72-.582 1.3-1.285 1.3v1zm-2.283-2.299a2.293 2.293 0 002.283 2.3v-1a1.293 1.293 0 01-1.283-1.3h-1zm2.283-2.299a2.293 2.293 0 00-2.283 2.3h1c0-.72.58-1.3 1.283-1.3v-1zm2.285 2.3a2.293 2.293 0 00-2.285-2.3v1c.705 0 1.285.58 1.285 1.3h1zm-2.285.4a.4.4 0 01-.402-.4h1a.6.6 0 00-.598-.6v1zm.403-.4c0 .2-.162.4-.403.4v-1a.598.598 0 00-.597.6h1zm-.805 0c0-.143.072-.267.171-.34a.387.387 0 01.232-.079c.06 0 .147.016.232.079.098.073.17.197.17.34h-1c0 .196.097.36.232.461a.613.613 0 00.732 0 .574.574 0 00.231-.462h-1z" fill="#222532"/><path d="M15.438 342.528c.584 0 1.092.084 1.524.252.432.168.836.424 1.212.768l-.78.9a3.058 3.058 0 00-.9-.54 2.69 2.69 0 00-.96-.168c-.384 0-.696.088-.936.264-.232.168-.348.408-.348.72 0 .208.044.38.132.516.096.136.264.264.504.384s.596.252 1.068.396c.816.256 1.428.576 1.836.96.416.376.624.928.624 1.656 0 .496-.128.936-.384 1.32-.248.384-.608.684-1.08.9-.472.216-1.032.324-1.68.324-.632 0-1.2-.1-1.704-.3a4.06 4.06 0 01-1.284-.84l.816-.912c.32.272.652.48.996.624.344.136.724.204 1.14.204.456 0 .824-.108 1.104-.324.28-.216.42-.52.42-.912 0-.24-.048-.436-.144-.588-.096-.16-.26-.3-.492-.42-.232-.128-.568-.26-1.008-.396-.88-.272-1.516-.6-1.908-.984-.392-.384-.588-.888-.588-1.512 0-.456.12-.856.36-1.2s.572-.612.996-.804c.432-.192.92-.288 1.464-.288zm10.663 1.944c.56 0 1 .172 1.32.516.32.344.48.816.48 1.416V351h-1.536v-4.356c0-.376-.068-.64-.204-.792-.128-.152-.32-.228-.576-.228-.256 0-.492.084-.708.252a2.7 2.7 0 00-.624.696V351h-1.536v-8.88l1.536-.156v3.444c.512-.624 1.128-.936 1.848-.936zm9.18 0c.937 0 1.665.3 2.185.9.528.592.792 1.408.792 2.448 0 .664-.12 1.252-.36 1.764a2.74 2.74 0 01-1.032 1.176c-.448.28-.98.42-1.596.42-.936 0-1.668-.296-2.196-.888-.528-.6-.792-1.424-.792-2.472 0-.664.12-1.248.36-1.752a2.74 2.74 0 011.032-1.176c.456-.28.992-.42 1.608-.42zm0 1.164c-.92 0-1.38.728-1.38 2.184 0 .752.113 1.308.337 1.668.232.352.576.528 1.032.528.456 0 .796-.18 1.02-.54.232-.36.348-.912.348-1.656 0-.744-.116-1.292-.348-1.644-.224-.36-.56-.54-1.008-.54zm10.704-1.164c.8 0 1.392.292 1.776.876.384.584.576 1.404.576 2.46 0 .656-.1 1.24-.3 1.752-.192.504-.48.9-.864 1.188-.376.288-.824.432-1.344.432-.672 0-1.204-.232-1.596-.696v2.964l-1.536.168v-8.964h1.344l.084.78c.248-.32.532-.56.852-.72.32-.16.656-.24 1.008-.24zm-.588 5.532c.888 0 1.332-.728 1.332-2.184 0-.776-.1-1.336-.3-1.68a.976.976 0 00-.9-.516c-.256 0-.496.08-.72.24-.224.152-.416.36-.576.624v2.856c.296.44.684.66 1.164.66z" fill="#fff"/><g filter="url(#filter1_d)"><path fill-rule="evenodd" clip-rule="evenodd" d="M24 310.583c0-13.081 5.422-20.138 7.639-20.139 2.217.001 7.639 7.058 7.639 20.139 0 13.217-4.743 22.177-4.945 22.552l-.196.365h-4.996l-.197-.365c-.2-.375-4.944-9.335-4.944-22.552zm6.945-18.295zm0 0v21.768h1.389v-21.768c1.777 1.587 5.555 7.36 5.555 18.295 0 3.65-.384 6.979-.93 9.887-.804-1.144-2.282-2.701-4.974-4.239-6.547-3.742-6.467-8.879-6.462-9.096h-.002c.682-8.716 3.844-13.435 5.424-14.847zm-5.42 21.936a51.341 51.341 0 01-.113-2.526c.993 1.846 2.755 3.951 5.883 5.74 4.446 2.541 5.207 5.054 5.226 5.117v.001a52.556 52.556 0 01-1.087 4.022c-.585-1.036-1.616-2.31-3.437-3.395-5.485-3.266-6.35-8.004-6.472-8.959zm6.809 17.887h.96c.275-.569.834-1.788 1.47-3.542-.136-.578-.785-2.59-3.48-4.194-2.449-1.46-4.06-3.198-5.124-4.826 1.137 6.661 3.2 11.274 3.825 12.562h.96v-4.861h1.389v4.861z" fill="#fff"/><path d="M31.639 290.444v-.125.125zm2.694 42.691l.11.059-.11-.059zm-.196.365v.125h.075l.035-.066-.11-.059zm-4.996 0l-.11.059.035.066h.075v-.125zm-.197-.365l-.11.059.11-.059zm2-40.847l-.04-.118-.084.029v.089h.125zm0 0l.084.093-.123-.211.04.118zm0 21.768h-.124v.125h.125v-.125zm1.39 0v.125h.125v-.125h-.125zm0-21.768l.083-.093-.208-.186v.279h.125zm4.624 28.182l-.102.072.17.243.055-.291-.123-.024zm-4.973-4.239l-.062.108.062-.108zm-6.462-9.096l.125.003.003-.128h-.128v.125zm-.002 0l-.124-.009-.01.134h.134v-.125zm-.109 4.563l.11-.059-.235.062.125-.003zm.113 2.526l-.125.009v.007l.125-.016zm5.77 3.214l-.062.108.062-.108zm5.226 5.117l-.12.036v.001l.12-.037zm0 .001l.122.028.007-.033-.01-.032-.119.037zm-1.087 4.022l-.108.062.141.251.087-.275-.12-.038zm-3.437-3.395l.064-.108-.064.108zm1.297 8.928v.125h.215l-.107-.187-.108.062zm-.96 0h-.126v.125h.126v-.125zm.96 0l-.113-.055-.029.06.033.057.108-.062zm1.47-3.542l.117.043.013-.035-.008-.036-.122.028zm-3.48-4.194l-.063.107.064-.107zm-5.124-4.826l.105-.069-.228.09.123-.021zm3.825 12.562l-.113.055.034.07h.079v-.125zm.96 0v.125h.125v-.125h-.125zm0-4.861v-.125h-.125v.125h.125zm1.389 0h.124v-.125h-.124v.125zm-.695-36.931c-.309.001-.659.123-1.03.348-.372.225-.774.56-1.19.999-.83.878-1.723 2.18-2.544 3.889-1.641 3.417-3 8.471-3 15.028h.25c0-6.523 1.352-11.539 2.976-14.92.812-1.691 1.69-2.971 2.5-3.825.404-.428.79-.746 1.138-.958.35-.212.654-.31.9-.311v-.25zm7.764 20.264c0-6.557-1.36-11.611-3-15.029-.821-1.708-1.713-3.011-2.544-3.888-.416-.439-.818-.774-1.19-.999-.371-.225-.721-.347-1.03-.348v.25c.246.001.55.099.9.311.348.212.733.53 1.138.958.81.854 1.688 2.134 2.5 3.825 1.624 3.381 2.976 8.396 2.976 14.92h.25zm-4.96 22.611c.207-.384 4.96-9.365 4.96-22.611h-.25c0 13.188-4.734 22.128-4.93 22.493l.22.118zm-.196.365l.196-.365-.22-.118-.196.364.22.119zm-5.106.066h4.996v-.25h-4.996v.25zm-.307-.431l.197.365.22-.119-.197-.364-.22.118zm-4.959-22.611c0 13.246 4.753 22.227 4.96 22.611l.22-.118c-.197-.366-4.93-9.305-4.93-22.493h-.25zm6.945-18.295h.25-.25zm.084-.118l.08.237.001-.001-.08-.236zm.124.211l-.166-.186.166.186zm.042 21.675v-21.768h-.25v21.768h.25zm1.264-.125h-1.39v.25h1.39v-.25zm-.125-21.643v21.768h.25v-21.768h-.25zm5.805 18.295c0-10.961-3.786-16.772-5.597-18.388l-.167.186c1.745 1.558 5.514 7.293 5.514 18.202h.25zm-.933 9.911c.548-2.915.933-6.253.933-9.911h-.25c0 3.641-.383 6.963-.928 9.864l.245.047zm-5.158-4.155c2.677 1.53 4.14 3.075 4.933 4.203l.205-.143c-.815-1.16-2.307-2.73-5.014-4.277l-.124.217zm-6.525-9.207c-.006.244-.076 5.435 6.525 9.207l.124-.217c-6.493-3.71-6.404-8.794-6.4-8.984l-.249-.006zm.123.128h.002v-.25h-.002v.25zm5.34-15.065c-1.61 1.438-4.78 6.191-5.464 14.931l.249.019c.68-8.693 3.832-13.379 5.382-14.764l-.167-.186zm-5.574 19.506c.02.861.054 1.707.113 2.532l.25-.018a51.179 51.179 0 01-.113-2.519l-.25.005zm6.07 5.628c-3.107-1.776-4.853-3.865-5.835-5.69l-.22.119c1.004 1.866 2.783 3.988 5.931 5.788l.124-.217zm5.284 5.19c-.029-.093-.81-2.633-5.284-5.19l-.124.217c4.417 2.525 5.158 5.011 5.168 5.045l.24-.072zm0 0l-.24.073.24-.073zm-1.087 4.097a52.9 52.9 0 001.089-4.032l-.244-.056a52.635 52.635 0 01-1.084 4.013l.239.075zm-3.621-3.326c1.8 1.073 2.817 2.331 3.392 3.35l.218-.123c-.595-1.054-1.64-2.345-3.482-3.442l-.128.215zm-6.532-9.05c.124.975 1.002 5.757 6.532 9.05l.128-.215c-5.439-3.238-6.294-7.932-6.412-8.866l-.248.031zm7.893 17.746h-.96v.25h.96v-.25zm-.109.187v.001l.217-.125-.217.124zm1.461-3.646a37.64 37.64 0 01-1.465 3.529l.225.11c.278-.573.838-1.796 1.475-3.554l-.235-.085zm-3.425-4.045c2.658 1.583 3.292 3.562 3.421 4.116l.244-.057c-.142-.603-.807-2.648-3.537-4.274l-.128.215zm-5.166-4.865c1.074 1.643 2.699 3.395 5.166 4.865l.128-.215c-2.432-1.449-4.03-3.173-5.084-4.787l-.21.137zm4.042 12.44c-.621-1.281-2.68-5.882-3.814-12.529l-.246.042c1.14 6.676 3.207 11.3 3.835 12.596l.225-.109zm.848-.071h-.96v.25h.96v-.25zm-.125-4.736v4.861h.25v-4.861h-.25zm1.514-.125h-1.39v.25h1.39v-.25zm.124 4.986v-4.861h-.25v4.861h.25z" fill="#000"/></g><defs><filter id="filter0_d" x="7" y="193.484" width="46.519" height="46.827" filterUnits="userSpaceOnUse" color-interpolation-filters="sRGB"><feFlood flood-opacity="0" result="BackgroundImageFix"/><feColorMatrix in="SourceAlpha" values="0 0 0 0 0 0 0 0 0 0 0 0 0 0 0 0 0 0 127 0"/><feOffset dy="4"/><feGaussianBlur stdDeviation="2"/><feColorMatrix values="0 0 0 0 0 0 0 0 0 0 0 0 0 0 0 0 0 0 0.25 0"/><feBlend in2="BackgroundImageFix" result="effect1_dropShadow"/><feBlend in="SourceGraphic" in2="effect1_dropShadow" result="shape"/></filter><filter id="filter1_d" x="19.875" y="290.319" width="23.528" height="51.305" filterUnits="userSpaceOnUse" color-interpolation-filters="sRGB"><feFlood flood-opacity="0" result="BackgroundImageFix"/><feColorMatrix in="SourceAlpha" values="0 0 0 0 0 0 0 0 0 0 0 0 0 0 0 0 0 0 127 0"/><feOffset dy="4"/><feGaussianBlur stdDeviation="2"/><feColorMatrix values="0 0 0 0 0 0 0 0 0 0 0 0 0 0 0 0 0 0 0.25 0"/><feBlend in2="BackgroundImageFix" result="effect1_dropShadow"/><feBlend in="SourceGraphic" in2="effect1_dropShadow" result="shape"/></filter></defs></svg>