<svg width="40" height="25" fill="none" xmlns="http://www.w3.org/2000/svg"><path d="M26.358 4.754l.262-.236c.175-.155.345-.313.51-.469.162-.166.353-.276.521-.417.173-.135.34-.274.509-.399.35-.224.676-.472 1.007-.662.33-.184.638-.387.944-.525l.434-.224.409-.181c.52-.241.95-.388 1.247-.496.297-.096.457-.146.457-.146l.015-.005a.18.18 0 00.116-.116.181.181 0 00-.116-.226s-.18-.057-.509-.117C32 .51 31.792.47 31.551.454c-.243-.02-.526-.05-.84-.04-.158.002-.325-.002-.5.008l-.547.05c-.386.027-.79.115-1.23.204-.224.037-.442.107-.67.177l-.706.22c-.462.194-.968.386-1.46.649-.242.136-.492.278-.743.429l-.38.228-.363.264c-.24.184-.487.37-.738.56-.26.183-.465.42-.703.638l-.701.685a30.12 30.12 0 00-.63.771c-.205.266-.428.53-.617.812-.181.287-.352.585-.53.882-.168.304-.356.595-.506.918-.146.329-.282.665-.42 1.002-.138.336-.276.675-.404 1.016l-.268.954-.269.96-.151.53-.118.436c-.042.147-.075.295-.122.44l-.158.423-.158.427c-.054.142-.124.274-.186.414a12.419 12.419 0 01-1.974 3.037 14.838 14.838 0 01-2.693 2.38c-.976.677-2.008 1.22-3.022 1.678a23.313 23.313 0 01-2.967 1.082 30.126 30.126 0 01-4.696.962c-1.159.145-1.823.155-1.823.155a.175.175 0 00-.17.151.174.174 0 00.151.195h.004s.68.086 1.87.11c.595.014 1.32.008 2.152-.044a26.64 26.64 0 002.791-.306c2.031-.342 4.422-.962 6.775-2.242 1.174-.637 2.338-1.436 3.375-2.434a15.047 15.047 0 002.694-3.444c.092-.161.191-.317.276-.482l.244-.495c.165-.331.325-.665.458-1.006l.209-.51.052-.128.026-.063.007-.017-.017.051.012-.028.098-.23.395-.917.394-.909c.148-.253.285-.505.42-.756.134-.251.27-.499.392-.752.138-.247.302-.487.447-.73.144-.244.289-.485.424-.729.15-.233.314-.449.463-.673.157-.221.296-.45.448-.668l.485-.607.238-.301a2.28 2.28 0 01.242-.288c.172-.18.34-.359.506-.535l.239-.264z" fill="#4AF6CD"/><path fill-rule="evenodd" clip-rule="evenodd" d="M38.83 23.451c.636.284 1.007.422 1.007.422a.119.119 0 01.072.153.125.125 0 01-.138.077s-.398-.077-1.08-.251a26.811 26.811 0 01-2.792-.893l-.275-.107a27.468 27.468 0 01-.609-.242l-.433-.19a38.979 38.979 0 01-.503-.22l-.37-.181-.602-.298-.74-.416-.253-.141-.318-.203a226.16 226.16 0 00-.682-.434 26.674 26.674 0 01-.704-.521l-.28-.212-.503-.44-.445-.391a77.034 77.034 0 00-.267-.281 33.96 33.96 0 01-.617-.657l-.404-.516-.201-.26-.103-.13-.025-.031-.014-.017-.002-.005s.017.031-.03-.05l-.006-.008-.041-.063-.326-.5a4.431 4.431 0 00-.1-.154 2.46 2.46 0 01-.224-.382l-.153-.306c-.161-.317-.324-.637-.41-.964l-.044-.13a7.385 7.385 0 01-.156-.514l-.046-.285-.062-.389-.016-.13a2.357 2.357 0 01-.022-.206l.003-.342.006-.194c.003-.161.007-.321.032-.48.028-.174.064-.343.1-.511l.031-.15c.026-.144.082-.284.138-.42.028-.07.055-.137.079-.205l.12-.299c.028-.064.065-.126.102-.187.02-.03.038-.061.055-.092l.1-.164c.075-.126.148-.25.234-.363l.032-.038c.256-.3.5-.586.798-.798.216-.196.468-.329.705-.454.067-.036.133-.07.197-.106.113-.05.228-.089.34-.126l.119-.04.044-.016c.132-.044.259-.087.393-.1a3.723 3.723 0 011.465-.006c.196.042.364.088.507.13a6.685 6.685 0 01.623.304c.06.035.08.111.045.171a.122.122 0 01-.09.062l-.017.003-.29.043c-.076.014-.164.024-.263.036l-.067.007-.133.039c-.091.026-.189.055-.29.08a1.32 1.32 0 00-.328.12c-.051.023-.103.048-.156.069-.116.035-.226.105-.338.176a3.415 3.415 0 01-.17.103c-.117.07-.226.163-.336.256-.053.045-.106.09-.16.133a3.336 3.336 0 01-.154.168c-.1.106-.2.21-.278.344-.276.36-.466.813-.572 1.303a1.808 1.808 0 01-.03.136c-.02.078-.04.155-.038.24l-.007.09a4.494 4.494 0 01-.028.306c-.007.073-.002.15.002.227.003.063.007.126.004.188v.053c0 .052.001.105-.001.158.002.05.01.1.018.151a2.986 2.986 0 01.033.3l.02.214c.037.151.07.306.1.462.03.21.088.399.147.591.032.107.066.214.094.327.017.102.077.233.138.364l.07.154.246.544.03.068.003.005.003.007.069.116.14.23.28.465.378.495.292.38.758.819c.272.254.543.507.813.756l.28.234.563.466.859.637c.29.197.577.39.854.576l.833.519c.173.103.344.2.512.296a28.81 28.81 0 001.72.907c.436.212.818.388 1.136.529zm-9.51-7.466c0-.001 0-.002-.002-.002l.009.014.003.004a.21.21 0 01-.01-.017z" fill="#4AF6CD"/><path d="M31.488 2.852a7.76 7.76 0 00-1.275.366.09.09 0 00-.057.082.086.086 0 00.087.088c.001 0 .517.003 1.276.091.38.037.815.113 1.273.193.458.103.941.196 1.405.342.116.04.233.072.346.115l.33.146c.22.095.426.2.634.271.211.063.416.118.617.155l.583.093c.185.028.364.038.527.046.158.017.304.027.429.027.25.005.417-.013.417-.013l.007-.002.023-.005a.11.11 0 00.065-.14s-.055-.15-.19-.374a3.502 3.502 0 00-.267-.385 3.625 3.625 0 00-.416-.416 3.777 3.777 0 00-.26-.213c-.096-.06-.192-.128-.298-.186a2.604 2.604 0 00-.69-.31 3.201 3.201 0 00-.796-.129c-.275-.024-.55-.036-.825-.05-.273-.024-.545-.021-.811-.026-.266-.007-.529.02-.78.033-.252.03-.492.043-.72.085-.225.038-.438.075-.634.116zm5.622 6.151c.166.074.295.157.425.217.238.133.404.213.404.213l.01.005a.1.1 0 00.045.01.1.1 0 00.096-.101l-.003-.128c-.005-.084-.01-.208-.044-.36-.036-.147-.08-.335-.172-.528a3.079 3.079 0 00-.358-.625 6.007 6.007 0 00-.257-.318c-.098-.098-.197-.207-.308-.304a3.579 3.579 0 00-.753-.525 4.276 4.276 0 00-.904-.326c-.314-.085-.632-.151-.944-.224a12.706 12.706 0 00-1.837-.293 15.37 15.37 0 00-1.6-.06c-.932.012-1.545.105-1.545.105a.09.09 0 00-.075.07.088.088 0 00.07.103s.6.115 1.476.346c.437.113.94.26 1.47.435.264.085.531.188.804.284.27.1.54.21.803.328.263.12.517.256.751.406.238.147.459.299.682.422.223.121.437.227.651.32l.595.278c.19.09.364.175.517.25zm-.928 2.086a2.318 2.318 0 00-.253-.386 1.619 1.619 0 00-.364-.34c-.14-.1-.31-.16-.477-.225-.17-.056-.34-.111-.505-.173a7.088 7.088 0 00-.981-.274 7.552 7.552 0 00-.866-.128c-.505-.052-.848-.03-.848-.03a.076.076 0 00-.061.042.072.072 0 00.034.096s.301.141.734.367c.214.118.458.26.714.414l.384.243c.132.08.256.173.383.26.121.092.237.194.344.299.1.11.207.207.31.29.102.083.225.138.335.195.108.058.226.1.334.143.103.045.21.081.312.111.103.03.185.065.266.087.16.048.276.068.276.068l.005.001a.096.096 0 00.111-.076s.02-.11.009-.29a1.547 1.547 0 00-.05-.32 2.535 2.535 0 00-.146-.374z" fill="#4AF6CD"/></svg>